# Blender 5.1.0
# www.blender.org
mtllib doorframe.mtl
o doorframe
v -0.640000 -0.985000 0.080000
v -0.640000 1.015000 0.080000
v -0.640000 -0.985000 -0.080000
v -0.640000 1.015000 -0.080000
v -0.560000 -0.985000 0.080000
v -0.560000 0.955000 0.080000
v -0.560000 -0.985000 -0.080000
v -0.560000 0.955000 -0.080000
v 0.560000 -0.985000 0.080000
v 0.560000 0.955000 0.080000
v 0.560000 -0.985000 -0.080000
v 0.560000 0.955000 -0.080000
v 0.640000 -0.985000 0.080000
v 0.640000 1.015000 0.080000
v 0.640000 -0.985000 -0.080000
v 0.640000 1.015000 -0.080000
vn -1.0000 -0.0000 -0.0000
vn -0.0000 -1.0000 -0.0000
vn 1.0000 -0.0000 -0.0000
vn -0.0000 -0.0000 1.0000
vn -0.0000 -0.0000 -1.0000
vn -0.0000 1.0000 -0.0000
vt 16.000000 194.000000
vt 0.000000 194.000000
vt 16.000000 0.000000
vt 0.000000 0.000000
vt -4.000000 -8.000000
vt 4.000000 -8.000000
vt -4.000000 8.000000
vt 4.000000 8.000000
vt 16.000000 112.000000
vt 0.000000 112.000000
vt 197.000000 8.000000
vt -3.000000 8.000000
vt 197.000000 -8.000000
vt -3.000000 -8.000000
vt 8.000000 0.000000
vt 8.000000 194.000000
vt 0.000000 200.000000
vt 120.000000 194.000000
vt 128.000000 200.000000
vt 128.000000 0.000000
vt 120.000000 0.000000
vt 16.000000 200.000000
vt 8.000000 200.000000
vt -120.000000 200.000000
vt -112.000000 194.000000
vt -120.000000 0.000000
vt -112.000000 0.000000
vt 124.000000 8.000000
vt 124.000000 -8.000000
s 1
usemtl 33,138,33
f 11/1/1 9/2/1 12/3/1
f 12/3/1 9/2/1 10/4/1
f 13/5/2 9/6/2 15/7/2
f 15/7/2 9/6/2 11/8/2
f 12/9/2 10/10/2 8/3/2
f 8/3/2 10/10/2 6/4/2
f 15/11/3 16/12/3 13/13/3
f 13/13/3 16/12/3 14/14/3
f 8/1/3 6/2/3 7/3/3
f 7/3/3 6/2/3 5/4/3
f 5/15/4 6/16/4 1/4/4
f 1/4/4 6/16/4 2/17/4
f 2/17/4 6/16/4 10/18/4
f 2/17/4 10/18/4 14/19/4
f 14/19/4 10/18/4 13/20/4
f 13/20/4 10/18/4 9/21/4
f 3/4/1 1/3/1 4/17/1
f 4/17/1 1/3/1 2/22/1
f 7/4/5 3/15/5 8/2/5
f 8/2/5 3/15/5 4/23/5
f 8/2/5 4/23/5 16/24/5
f 8/2/5 16/24/5 12/25/5
f 12/25/5 16/24/5 15/26/5
f 12/25/5 15/26/5 11/27/5
f 16/28/6 4/7/6 14/29/6
f 14/29/6 4/7/6 2/5/6
f 3/8/2 7/7/2 1/6/2
f 1/6/2 7/7/2 5/5/2
