# Blender 5.1.0
# www.blender.org
mtllib Untitled.mtl
o stop
v -0.039000 0.006633 -0.015000
v -0.039784 0.006633 -0.014966
v -0.040563 0.006633 -0.014863
v -0.041329 0.006633 -0.014693
v -0.042078 0.006633 -0.014457
v -0.042804 0.006633 -0.014157
v -0.043500 0.006633 -0.013794
v -0.044162 0.006633 -0.013372
v -0.044785 0.006633 -0.012894
v -0.045364 0.006633 -0.012364
v -0.045894 0.006633 -0.011785
v -0.046372 0.006633 -0.011162
v -0.046794 0.006633 -0.010500
v -0.047157 0.006633 -0.009804
v -0.047457 0.006633 -0.009078
v -0.047693 0.006633 -0.008329
v -0.047863 0.006633 -0.007563
v -0.047966 0.006633 -0.006784
v -0.048000 0.006633 -0.006000
v -0.048000 -0.002367 -0.006000
v -0.047966 -0.002367 -0.006784
v -0.047863 -0.002367 -0.007563
v -0.047693 -0.002367 -0.008329
v -0.047457 -0.002367 -0.009078
v -0.047157 -0.002367 -0.009804
v -0.046794 -0.002367 -0.010500
v -0.046372 -0.002367 -0.011162
v -0.045894 -0.002367 -0.011785
v -0.045364 -0.002367 -0.012364
v -0.044785 -0.002367 -0.012894
v -0.044162 -0.002367 -0.013372
v -0.043500 -0.002367 -0.013794
v -0.042804 -0.002367 -0.014157
v -0.042078 -0.002367 -0.014457
v -0.041329 -0.002367 -0.014693
v -0.040563 -0.002367 -0.014863
v -0.039784 -0.002367 -0.014966
v -0.039000 -0.002367 -0.015000
v -0.048000 0.006633 0.006000
v -0.048000 -0.002367 0.006000
v -0.047966 0.006633 0.006784
v -0.047863 0.006633 0.007563
v -0.047693 0.006633 0.008329
v -0.047457 0.006633 0.009078
v -0.047157 0.006633 0.009804
v -0.046794 0.006633 0.010500
v -0.046372 0.006633 0.011162
v -0.045894 0.006633 0.011785
v -0.045364 0.006633 0.012364
v -0.044785 0.006633 0.012894
v -0.044162 0.006633 0.013372
v -0.043500 0.006633 0.013794
v -0.042804 0.006633 0.014157
v -0.042078 0.006633 0.014457
v -0.041329 0.006633 0.014693
v -0.040563 0.006633 0.014863
v -0.039784 0.006633 0.014966
v -0.039000 0.006633 0.015000
v -0.039000 -0.002367 0.015000
v -0.039784 -0.002367 0.014966
v -0.040563 -0.002367 0.014863
v -0.041329 -0.002367 0.014693
v -0.042078 -0.002367 0.014457
v -0.042804 -0.002367 0.014157
v -0.043500 -0.002367 0.013794
v -0.044162 -0.002367 0.013372
v -0.044785 -0.002367 0.012894
v -0.045364 -0.002367 0.012364
v -0.045894 -0.002367 0.011785
v -0.046372 -0.002367 0.011162
v -0.046794 -0.002367 0.010500
v -0.047157 -0.002367 0.009804
v -0.047457 -0.002367 0.009078
v -0.047693 -0.002367 0.008329
v -0.047863 -0.002367 0.007563
v -0.047966 -0.002367 0.006784
v 0.039000 0.006633 0.015000
v 0.039000 -0.002367 0.015000
v 0.039784 0.006633 0.014966
v 0.040563 0.006633 0.014863
v 0.041329 0.006633 0.014693
v 0.042078 0.006633 0.014457
v 0.042804 0.006633 0.014157
v 0.043500 0.006633 0.013794
v 0.044162 0.006633 0.013372
v 0.044785 0.006633 0.012894
v 0.045364 0.006633 0.012364
v 0.045894 0.006633 0.011785
v 0.046372 0.006633 0.011162
v 0.046794 0.006633 0.010500
v 0.047157 0.006633 0.009804
v 0.047457 0.006633 0.009078
v 0.047693 0.006633 0.008329
v 0.047863 0.006633 0.007563
v 0.047966 0.006633 0.006784
v 0.048000 0.006633 0.006000
v 0.048000 -0.002367 0.006000
v 0.047966 -0.002367 0.006784
v 0.047863 -0.002367 0.007563
v 0.047693 -0.002367 0.008329
v 0.047457 -0.002367 0.009078
v 0.047157 -0.002367 0.009804
v 0.046794 -0.002367 0.010500
v 0.046372 -0.002367 0.011162
v 0.045894 -0.002367 0.011785
v 0.045364 -0.002367 0.012364
v 0.044785 -0.002367 0.012894
v 0.044162 -0.002367 0.013372
v 0.043500 -0.002367 0.013794
v 0.042804 -0.002367 0.014157
v 0.042078 -0.002367 0.014457
v 0.041329 -0.002367 0.014693
v 0.040563 -0.002367 0.014863
v 0.039784 -0.002367 0.014966
v 0.048000 0.006633 -0.006000
v 0.048000 -0.002367 -0.006000
v 0.047966 0.006633 -0.006784
v 0.047863 0.006633 -0.007563
v 0.047693 0.006633 -0.008329
v 0.047457 0.006633 -0.009078
v 0.047157 0.006633 -0.009804
v 0.046794 0.006633 -0.010500
v 0.046372 0.006633 -0.011162
v 0.045894 0.006633 -0.011785
v 0.045364 0.006633 -0.012364
v 0.044785 0.006633 -0.012894
v 0.044162 0.006633 -0.013372
v 0.043500 0.006633 -0.013794
v 0.042804 0.006633 -0.014157
v 0.042078 0.006633 -0.014457
v 0.041329 0.006633 -0.014693
v 0.040563 0.006633 -0.014863
v 0.039784 0.006633 -0.014966
v 0.039000 0.006633 -0.015000
v 0.039000 -0.002367 -0.015000
v 0.039784 -0.002367 -0.014966
v 0.040563 -0.002367 -0.014863
v 0.041329 -0.002367 -0.014693
v 0.042078 -0.002367 -0.014457
v 0.042804 -0.002367 -0.014157
v 0.043500 -0.002367 -0.013794
v 0.044162 -0.002367 -0.013372
v 0.044785 -0.002367 -0.012894
v 0.045364 -0.002367 -0.012364
v 0.045894 -0.002367 -0.011785
v 0.046372 -0.002367 -0.011162
v 0.046794 -0.002367 -0.010500
v 0.047157 -0.002367 -0.009804
v 0.047457 -0.002367 -0.009078
v 0.047693 -0.002367 -0.008329
v 0.047863 -0.002367 -0.007563
v 0.047966 -0.002367 -0.006784
v 0.065000 0.006633 -0.000000
v 0.064963 0.006633 0.002184
v 0.064853 0.006633 0.004365
v 0.064670 0.006633 0.006541
v 0.064414 0.006633 0.008710
v 0.064085 0.006633 0.010869
v 0.063684 0.006633 0.013015
v 0.063210 0.006633 0.015147
v 0.062666 0.006633 0.017262
v 0.062051 0.006633 0.019358
v 0.061365 0.006633 0.021431
v 0.060611 0.006633 0.023481
v 0.059788 0.006633 0.025504
v 0.058897 0.006633 0.027498
v 0.057940 0.006633 0.029461
v 0.056918 0.006633 0.031391
v 0.055831 0.006633 0.033285
v 0.054681 0.006633 0.035142
v 0.053470 0.006633 0.036959
v 0.052198 0.006633 0.038734
v 0.050868 0.006633 0.040466
v 0.049480 0.006633 0.042152
v 0.048036 0.006633 0.043790
v 0.046537 0.006633 0.045379
v 0.044987 0.006633 0.046917
v 0.043385 0.006633 0.048402
v 0.041735 0.006633 0.049832
v 0.040037 0.006633 0.051206
v 0.038294 0.006633 0.052522
v 0.036508 0.006633 0.053779
v 0.034681 0.006633 0.054975
v 0.032815 0.006633 0.056109
v 0.030911 0.006633 0.057179
v 0.028973 0.006633 0.058186
v 0.027002 0.006633 0.059126
v 0.025000 0.006633 0.060000
v 0.022971 0.006633 0.060806
v 0.020915 0.006633 0.061543
v 0.018836 0.006633 0.062211
v 0.016735 0.006633 0.062809
v 0.014616 0.006633 0.063335
v 0.012480 0.006633 0.063791
v 0.010330 0.006633 0.064174
v 0.008168 0.006633 0.064485
v 0.005997 0.006633 0.064723
v 0.003820 0.006633 0.064888
v 0.001638 0.006633 0.064979
v -0.000546 0.006633 0.064998
v -0.002729 0.006633 0.064943
v -0.004909 0.006633 0.064814
v -0.007084 0.006633 0.064613
v -0.009250 0.006633 0.064338
v -0.011407 0.006633 0.063991
v -0.013550 0.006633 0.063572
v -0.015678 0.006633 0.063081
v -0.017788 0.006633 0.062519
v -0.019878 0.006633 0.061886
v -0.021946 0.006633 0.061183
v -0.023989 0.006633 0.060411
v -0.026005 0.006633 0.059571
v -0.027991 0.006633 0.058664
v -0.029946 0.006633 0.057691
v -0.031868 0.006633 0.056652
v -0.033753 0.006633 0.055550
v -0.035600 0.006633 0.054384
v -0.037407 0.006633 0.053158
v -0.039171 0.006633 0.051871
v -0.040892 0.006633 0.050526
v -0.042566 0.006633 0.049124
v -0.044192 0.006633 0.047666
v -0.045768 0.006633 0.046155
v -0.047293 0.006633 0.044591
v -0.048764 0.006633 0.042977
v -0.050181 0.006633 0.041315
v -0.051540 0.006633 0.039606
v -0.052842 0.006633 0.037852
v -0.054083 0.006633 0.036055
v -0.055264 0.006633 0.034218
v -0.056382 0.006633 0.032342
v -0.057437 0.006633 0.030430
v -0.058427 0.006633 0.028483
v -0.059351 0.006633 0.026504
v -0.060208 0.006633 0.024496
v -0.060997 0.006633 0.022459
v -0.061717 0.006633 0.020397
v -0.062367 0.006633 0.018313
v -0.062947 0.006633 0.016207
v -0.063456 0.006633 0.014083
v -0.063893 0.006633 0.011944
v -0.064258 0.006633 0.009791
v -0.064551 0.006633 0.007626
v -0.064771 0.006633 0.005454
v -0.064917 0.006633 0.003275
v -0.064991 0.006633 0.001092
v -0.064991 0.006633 -0.001092
v -0.064917 0.006633 -0.003275
v -0.064771 0.006633 -0.005454
v -0.064551 0.006633 -0.007626
v -0.064258 0.006633 -0.009791
v -0.063893 0.006633 -0.011944
v -0.063456 0.006633 -0.014083
v -0.062947 0.006633 -0.016207
v -0.062367 0.006633 -0.018313
v -0.061717 0.006633 -0.020397
v -0.060997 0.006633 -0.022459
v -0.060208 0.006633 -0.024496
v -0.059351 0.006633 -0.026504
v -0.058427 0.006633 -0.028483
v -0.057437 0.006633 -0.030430
v -0.056382 0.006633 -0.032342
v -0.055264 0.006633 -0.034218
v -0.054083 0.006633 -0.036055
v -0.052842 0.006633 -0.037852
v -0.051540 0.006633 -0.039606
v -0.050181 0.006633 -0.041315
v -0.048764 0.006633 -0.042977
v -0.047293 0.006633 -0.044591
v -0.045768 0.006633 -0.046155
v -0.044192 0.006633 -0.047666
v -0.042566 0.006633 -0.049124
v -0.040892 0.006633 -0.050526
v -0.039171 0.006633 -0.051871
v -0.037407 0.006633 -0.053158
v -0.035600 0.006633 -0.054384
v -0.033753 0.006633 -0.055550
v -0.031868 0.006633 -0.056652
v -0.029946 0.006633 -0.057691
v -0.027991 0.006633 -0.058664
v -0.026005 0.006633 -0.059571
v -0.023989 0.006633 -0.060411
v -0.021946 0.006633 -0.061183
v -0.019878 0.006633 -0.061886
v -0.017788 0.006633 -0.062519
v -0.015678 0.006633 -0.063081
v -0.013550 0.006633 -0.063572
v -0.011407 0.006633 -0.063991
v -0.009250 0.006633 -0.064338
v -0.007084 0.006633 -0.064613
v -0.004909 0.006633 -0.064814
v -0.002729 0.006633 -0.064943
v -0.000546 0.006633 -0.064998
v 0.001638 0.006633 -0.064979
v 0.003820 0.006633 -0.064888
v 0.005997 0.006633 -0.064723
v 0.008168 0.006633 -0.064485
v 0.010330 0.006633 -0.064174
v 0.012480 0.006633 -0.063791
v 0.014616 0.006633 -0.063335
v 0.016735 0.006633 -0.062809
v 0.018836 0.006633 -0.062211
v 0.020915 0.006633 -0.061543
v 0.022971 0.006633 -0.060806
v 0.025000 0.006633 -0.060000
v 0.027002 0.006633 -0.059126
v 0.028973 0.006633 -0.058186
v 0.030911 0.006633 -0.057179
v 0.032815 0.006633 -0.056109
v 0.034681 0.006633 -0.054975
v 0.036508 0.006633 -0.053779
v 0.038294 0.006633 -0.052522
v 0.040037 0.006633 -0.051206
v 0.041735 0.006633 -0.049832
v 0.043385 0.006633 -0.048402
v 0.044987 0.006633 -0.046917
v 0.046537 0.006633 -0.045379
v 0.048036 0.006633 -0.043790
v 0.049480 0.006633 -0.042152
v 0.050868 0.006633 -0.040466
v 0.052198 0.006633 -0.038734
v 0.053470 0.006633 -0.036959
v 0.054681 0.006633 -0.035142
v 0.055831 0.006633 -0.033285
v 0.056918 0.006633 -0.031391
v 0.057940 0.006633 -0.029461
v 0.058897 0.006633 -0.027498
v 0.059788 0.006633 -0.025504
v 0.060611 0.006633 -0.023481
v 0.061365 0.006633 -0.021431
v 0.062051 0.006633 -0.019358
v 0.062666 0.006633 -0.017262
v 0.063210 0.006633 -0.015147
v 0.063684 0.006633 -0.013015
v 0.064085 0.006633 -0.010869
v 0.064414 0.006633 -0.008710
v 0.064670 0.006633 -0.006541
v 0.064853 0.006633 -0.004365
v 0.064963 0.006633 -0.002184
v 0.065000 -0.008367 -0.000000
v 0.064963 -0.008367 -0.002184
v 0.064853 -0.008367 -0.004365
v 0.064670 -0.008367 -0.006541
v 0.064414 -0.008367 -0.008710
v 0.064085 -0.008367 -0.010869
v 0.063684 -0.008367 -0.013015
v 0.063210 -0.008367 -0.015147
v 0.062666 -0.008367 -0.017262
v 0.062051 -0.008367 -0.019358
v 0.061365 -0.008367 -0.021431
v 0.060611 -0.008367 -0.023481
v 0.059788 -0.008367 -0.025504
v 0.058897 -0.008367 -0.027498
v 0.057940 -0.008367 -0.029461
v 0.056918 -0.008367 -0.031391
v 0.055831 -0.008367 -0.033285
v 0.054681 -0.008367 -0.035142
v 0.053470 -0.008367 -0.036959
v 0.052198 -0.008367 -0.038734
v 0.050868 -0.008367 -0.040466
v 0.049480 -0.008367 -0.042152
v 0.048036 -0.008367 -0.043790
v 0.046537 -0.008367 -0.045379
v 0.044987 -0.008367 -0.046917
v 0.043385 -0.008367 -0.048402
v 0.041735 -0.008367 -0.049832
v 0.040037 -0.008367 -0.051206
v 0.038294 -0.008367 -0.052522
v 0.036508 -0.008367 -0.053779
v 0.034681 -0.008367 -0.054975
v 0.032815 -0.008367 -0.056109
v 0.030911 -0.008367 -0.057179
v 0.028973 -0.008367 -0.058186
v 0.027002 -0.008367 -0.059126
v 0.025000 -0.008367 -0.060000
v 0.022971 -0.008367 -0.060806
v 0.020915 -0.008367 -0.061543
v 0.018836 -0.008367 -0.062211
v 0.016735 -0.008367 -0.062809
v 0.014616 -0.008367 -0.063335
v 0.012480 -0.008367 -0.063791
v 0.010330 -0.008367 -0.064174
v 0.008168 -0.008367 -0.064485
v 0.005997 -0.008367 -0.064723
v 0.003820 -0.008367 -0.064888
v 0.001638 -0.008367 -0.064979
v -0.000546 -0.008367 -0.064998
v -0.002729 -0.008367 -0.064943
v -0.004909 -0.008367 -0.064814
v -0.007084 -0.008367 -0.064613
v -0.009250 -0.008367 -0.064338
v -0.011407 -0.008367 -0.063991
v -0.013550 -0.008367 -0.063572
v -0.015678 -0.008367 -0.063081
v -0.017788 -0.008367 -0.062519
v -0.019878 -0.008367 -0.061886
v -0.021946 -0.008367 -0.061183
v -0.023989 -0.008367 -0.060411
v -0.026005 -0.008367 -0.059571
v -0.027991 -0.008367 -0.058664
v -0.029946 -0.008367 -0.057691
v -0.031868 -0.008367 -0.056652
v -0.033753 -0.008367 -0.055550
v -0.035600 -0.008367 -0.054384
v -0.037407 -0.008367 -0.053158
v -0.039171 -0.008367 -0.051871
v -0.040892 -0.008367 -0.050526
v -0.042566 -0.008367 -0.049124
v -0.044192 -0.008367 -0.047666
v -0.045768 -0.008367 -0.046155
v -0.047293 -0.008367 -0.044591
v -0.048764 -0.008367 -0.042977
v -0.050181 -0.008367 -0.041315
v -0.051540 -0.008367 -0.039606
v -0.052842 -0.008367 -0.037852
v -0.054083 -0.008367 -0.036055
v -0.055264 -0.008367 -0.034218
v -0.056382 -0.008367 -0.032342
v -0.057437 -0.008367 -0.030430
v -0.058427 -0.008367 -0.028483
v -0.059351 -0.008367 -0.026504
v -0.060208 -0.008367 -0.024496
v -0.060997 -0.008367 -0.022459
v -0.061717 -0.008367 -0.020397
v -0.062367 -0.008367 -0.018313
v -0.062947 -0.008367 -0.016207
v -0.063456 -0.008367 -0.014083
v -0.063893 -0.008367 -0.011944
v -0.064258 -0.008367 -0.009791
v -0.064551 -0.008367 -0.007626
v -0.064771 -0.008367 -0.005454
v -0.064917 -0.008367 -0.003275
v -0.064991 -0.008367 -0.001092
v -0.064991 -0.008367 0.001092
v -0.064917 -0.008367 0.003275
v -0.064771 -0.008367 0.005454
v -0.064551 -0.008367 0.007626
v -0.064258 -0.008367 0.009791
v -0.063893 -0.008367 0.011944
v -0.063456 -0.008367 0.014083
v -0.062947 -0.008367 0.016207
v -0.062367 -0.008367 0.018313
v -0.061717 -0.008367 0.020397
v -0.060997 -0.008367 0.022459
v -0.060208 -0.008367 0.024496
v -0.059351 -0.008367 0.026504
v -0.058427 -0.008367 0.028483
v -0.057437 -0.008367 0.030430
v -0.056382 -0.008367 0.032342
v -0.055264 -0.008367 0.034218
v -0.054083 -0.008367 0.036055
v -0.052842 -0.008367 0.037852
v -0.051540 -0.008367 0.039606
v -0.050181 -0.008367 0.041315
v -0.048764 -0.008367 0.042977
v -0.047293 -0.008367 0.044591
v -0.045768 -0.008367 0.046155
v -0.044192 -0.008367 0.047666
v -0.042566 -0.008367 0.049124
v -0.040892 -0.008367 0.050526
v -0.039171 -0.008367 0.051871
v -0.037407 -0.008367 0.053158
v -0.035600 -0.008367 0.054384
v -0.033753 -0.008367 0.055550
v -0.031868 -0.008367 0.056652
v -0.029946 -0.008367 0.057691
v -0.027991 -0.008367 0.058664
v -0.026005 -0.008367 0.059571
v -0.023989 -0.008367 0.060411
v -0.021946 -0.008367 0.061183
v -0.019878 -0.008367 0.061886
v -0.017788 -0.008367 0.062519
v -0.015678 -0.008367 0.063081
v -0.013550 -0.008367 0.063572
v -0.011407 -0.008367 0.063991
v -0.009250 -0.008367 0.064338
v -0.007084 -0.008367 0.064613
v -0.004909 -0.008367 0.064814
v -0.002729 -0.008367 0.064943
v -0.000546 -0.008367 0.064998
v 0.001638 -0.008367 0.064979
v 0.003820 -0.008367 0.064888
v 0.005997 -0.008367 0.064723
v 0.008168 -0.008367 0.064485
v 0.010330 -0.008367 0.064174
v 0.012480 -0.008367 0.063791
v 0.014616 -0.008367 0.063335
v 0.016735 -0.008367 0.062809
v 0.018836 -0.008367 0.062211
v 0.020915 -0.008367 0.061543
v 0.022971 -0.008367 0.060806
v 0.025000 -0.008367 0.060000
v 0.027002 -0.008367 0.059126
v 0.028973 -0.008367 0.058186
v 0.030911 -0.008367 0.057179
v 0.032815 -0.008367 0.056109
v 0.034681 -0.008367 0.054975
v 0.036508 -0.008367 0.053779
v 0.038294 -0.008367 0.052522
v 0.040037 -0.008367 0.051206
v 0.041735 -0.008367 0.049832
v 0.043385 -0.008367 0.048402
v 0.044987 -0.008367 0.046917
v 0.046537 -0.008367 0.045379
v 0.048036 -0.008367 0.043790
v 0.049480 -0.008367 0.042152
v 0.050868 -0.008367 0.040466
v 0.052198 -0.008367 0.038734
v 0.053470 -0.008367 0.036959
v 0.054681 -0.008367 0.035142
v 0.055831 -0.008367 0.033285
v 0.056918 -0.008367 0.031391
v 0.057940 -0.008367 0.029461
v 0.058897 -0.008367 0.027498
v 0.059788 -0.008367 0.025504
v 0.060611 -0.008367 0.023481
v 0.061365 -0.008367 0.021431
v 0.062051 -0.008367 0.019358
v 0.062666 -0.008367 0.017262
v 0.063210 -0.008367 0.015147
v 0.063684 -0.008367 0.013015
v 0.064085 -0.008367 0.010869
v 0.064414 -0.008367 0.008710
v 0.064670 -0.008367 0.006541
v 0.064853 -0.008367 0.004365
v 0.064963 -0.008367 0.002184
vn -0.0000 -0.0000 1.0000
vn 0.0873 -0.0000 0.9962
vn 0.1740 -0.0000 0.9847
vn 0.2588 -0.0000 0.9659
vn 0.3420 -0.0000 0.9397
vn 0.4226 -0.0000 0.9063
vn 0.5000 -0.0000 0.8660
vn 0.5737 -0.0000 0.8191
vn 0.6426 -0.0000 0.7662
vn 0.7071 -0.0000 0.7071
vn 0.7662 -0.0000 0.6426
vn 0.7660 -0.0000 0.6428
vn 0.8191 -0.0000 0.5737
vn 0.8659 -0.0000 0.5002
vn 0.8660 -0.0000 0.5000
vn 0.9063 -0.0000 0.4226
vn 0.9397 -0.0000 0.3420
vn 0.9397 -0.0000 0.3421
vn 0.9659 -0.0000 0.2588
vn 0.9847 -0.0000 0.1740
vn 0.9962 -0.0000 0.0873
vn 1.0000 -0.0000 -0.0000
vn 0.9962 -0.0000 -0.0873
vn 0.9847 -0.0000 -0.1740
vn 0.9659 -0.0000 -0.2588
vn 0.9397 -0.0000 -0.3420
vn 0.9063 -0.0000 -0.4226
vn 0.8660 -0.0000 -0.5000
vn 0.8191 -0.0000 -0.5737
vn 0.7662 -0.0000 -0.6426
vn 0.7071 -0.0000 -0.7071
vn 0.6426 -0.0000 -0.7662
vn 0.5737 -0.0000 -0.8191
vn 0.5000 -0.0000 -0.8660
vn 0.4226 -0.0000 -0.9063
vn 0.3418 -0.0000 -0.9398
vn 0.3420 -0.0000 -0.9397
vn 0.2588 -0.0000 -0.9659
vn 0.1740 -0.0000 -0.9847
vn 0.0873 -0.0000 -0.9962
vn -0.0000 -0.0000 -1.0000
vn -0.0873 -0.0000 -0.9962
vn -0.1740 -0.0000 -0.9847
vn -0.2588 -0.0000 -0.9659
vn -0.3420 -0.0000 -0.9397
vn -0.4226 -0.0000 -0.9063
vn -0.5000 -0.0000 -0.8660
vn -0.5737 -0.0000 -0.8191
vn -0.6426 -0.0000 -0.7662
vn -0.7071 -0.0000 -0.7071
vn -0.7662 -0.0000 -0.6426
vn -0.7660 -0.0000 -0.6428
vn -0.8191 -0.0000 -0.5737
vn -0.8659 -0.0000 -0.5002
vn -0.8660 -0.0000 -0.5000
vn -0.9063 -0.0000 -0.4226
vn -0.9397 -0.0000 -0.3420
vn -0.9397 -0.0000 -0.3421
vn -0.9659 -0.0000 -0.2588
vn -0.9847 -0.0000 -0.1740
vn -0.9962 -0.0000 -0.0873
vn -1.0000 -0.0000 -0.0000
vn -0.9962 -0.0000 0.0873
vn -0.9847 -0.0000 0.1740
vn -0.9659 -0.0000 0.2588
vn -0.9397 -0.0000 0.3420
vn -0.9063 -0.0000 0.4226
vn -0.8660 -0.0000 0.5000
vn -0.8191 -0.0000 0.5737
vn -0.7662 -0.0000 0.6426
vn -0.7071 -0.0000 0.7071
vn -0.6426 -0.0000 0.7662
vn -0.5737 -0.0000 0.8191
vn -0.5000 -0.0000 0.8660
vn -0.4226 -0.0000 0.9063
vn -0.3418 -0.0000 0.9398
vn -0.3420 -0.0000 0.9397
vn -0.2588 -0.0000 0.9659
vn -0.1740 -0.0000 0.9847
vn -0.0873 -0.0000 0.9962
vn -0.0000 1.0000 -0.0000
vn 0.9994 -0.0000 0.0337
vn 0.9994 -0.0000 -0.0337
vn 0.9977 -0.0000 -0.0671
vn 0.9949 -0.0000 -0.1005
vn 0.9910 -0.0000 -0.1340
vn 0.9910 -0.0000 -0.1339
vn 0.9859 -0.0000 -0.1672
vn 0.9797 -0.0000 -0.2004
vn 0.9725 -0.0000 -0.2331
vn 0.9641 -0.0000 -0.2654
vn 0.9546 -0.0000 -0.2979
vn 0.9441 -0.0000 -0.3297
vn 0.9325 -0.0000 -0.3611
vn 0.9198 -0.0000 -0.3925
vn 0.9061 -0.0000 -0.4232
vn 0.9061 -0.0000 -0.4231
vn 0.8914 -0.0000 -0.4532
vn 0.8757 -0.0000 -0.4829
vn 0.8589 -0.0000 -0.5122
vn 0.8413 -0.0000 -0.5406
vn 0.8226 -0.0000 -0.5686
vn 0.8031 -0.0000 -0.5959
vn 0.7827 -0.0000 -0.6224
vn 0.7612 -0.0000 -0.6485
vn 0.7389 -0.0000 -0.6738
vn 0.7160 -0.0000 -0.6981
vn 0.6922 -0.0000 -0.7217
vn 0.6675 -0.0000 -0.7446
vn 0.6421 -0.0000 -0.7666
vn 0.6159 -0.0000 -0.7878
vn 0.5891 -0.0000 -0.8080
vn 0.5617 -0.0000 -0.8273
vn 0.5336 -0.0000 -0.8457
vn 0.5047 -0.0000 -0.8633
vn 0.4756 -0.0000 -0.8797
vn 0.4458 -0.0000 -0.8951
vn 0.4153 -0.0000 -0.9097
vn 0.3847 -0.0000 -0.9230
vn 0.3534 -0.0000 -0.9355
vn 0.3217 -0.0000 -0.9468
vn 0.2899 -0.0000 -0.9571
vn 0.2574 -0.0000 -0.9663
vn 0.2249 -0.0000 -0.9744
vn 0.1921 -0.0000 -0.9814
vn 0.1589 -0.0000 -0.9873
vn 0.1257 -0.0000 -0.9921
vn 0.0923 -0.0000 -0.9957
vn 0.0586 -0.0000 -0.9983
vn 0.0252 -0.0000 -0.9997
vn -0.0082 -0.0000 -1.0000
vn -0.0418 -0.0000 -0.9991
vn -0.0756 -0.0000 -0.9971
vn -0.1090 -0.0000 -0.9940
vn -0.1424 -0.0000 -0.9898
vn -0.1754 -0.0000 -0.9845
vn -0.2084 -0.0000 -0.9780
vn -0.2411 -0.0000 -0.9705
vn -0.2737 -0.0000 -0.9618
vn -0.3059 -0.0000 -0.9521
vn -0.3377 -0.0000 -0.9412
vn -0.3691 -0.0000 -0.9294
vn -0.4001 -0.0000 -0.9165
vn -0.4306 -0.0000 -0.9026
vn -0.4606 -0.0000 -0.8876
vn -0.4902 -0.0000 -0.8716
vn -0.5193 -0.0000 -0.8546
vn -0.5477 -0.0000 -0.8367
vn -0.5755 -0.0000 -0.8178
vn -0.6027 -0.0000 -0.7980
vn -0.6290 -0.0000 -0.7774
vn -0.6549 -0.0000 -0.7557
vn -0.6799 -0.0000 -0.7333
vn -0.7041 -0.0000 -0.7101
vn -0.7276 -0.0000 -0.6860
vn -0.7501 -0.0000 -0.6613
vn -0.7719 -0.0000 -0.6357
vn -0.7929 -0.0000 -0.6093
vn -0.8130 -0.0000 -0.5822
vn -0.8321 -0.0000 -0.5546
vn -0.8502 -0.0000 -0.5264
vn -0.8674 -0.0000 -0.4976
vn -0.8836 -0.0000 -0.4682
vn -0.8989 -0.0000 -0.4382
vn -0.9130 -0.0000 -0.4079
vn -0.9262 -0.0000 -0.3769
vn -0.9384 -0.0000 -0.3455
vn -0.9495 -0.0000 -0.3137
vn -0.9595 -0.0000 -0.2817
vn -0.9684 -0.0000 -0.2493
vn -0.9763 -0.0000 -0.2166
vn -0.9830 -0.0000 -0.1837
vn -0.9886 -0.0000 -0.1507
vn -0.9931 -0.0000 -0.1175
vn -0.9965 -0.0000 -0.0838
vn -0.9987 -0.0000 -0.0504
vn -0.9999 -0.0000 -0.0169
vn -0.9999 -0.0000 0.0169
vn -0.9987 -0.0000 0.0504
vn -0.9965 -0.0000 0.0838
vn -0.9931 -0.0000 0.1175
vn -0.9886 -0.0000 0.1507
vn -0.9830 -0.0000 0.1837
vn -0.9763 -0.0000 0.2166
vn -0.9684 -0.0000 0.2493
vn -0.9595 -0.0000 0.2817
vn -0.9495 -0.0000 0.3137
vn -0.9384 -0.0000 0.3455
vn -0.9262 -0.0000 0.3769
vn -0.9130 -0.0000 0.4079
vn -0.8989 -0.0000 0.4382
vn -0.8836 -0.0000 0.4682
vn -0.8674 -0.0000 0.4976
vn -0.8502 -0.0000 0.5264
vn -0.8321 -0.0000 0.5546
vn -0.8130 -0.0000 0.5822
vn -0.7929 -0.0000 0.6093
vn -0.7719 -0.0000 0.6357
vn -0.7501 -0.0000 0.6613
vn -0.7276 -0.0000 0.6860
vn -0.7041 -0.0000 0.7101
vn -0.6799 -0.0000 0.7333
vn -0.6549 -0.0000 0.7557
vn -0.6290 -0.0000 0.7774
vn -0.6027 -0.0000 0.7980
vn -0.5755 -0.0000 0.8178
vn -0.5477 -0.0000 0.8367
vn -0.5193 -0.0000 0.8546
vn -0.4902 -0.0000 0.8716
vn -0.4606 -0.0000 0.8876
vn -0.4306 -0.0000 0.9026
vn -0.4001 -0.0000 0.9165
vn -0.3691 -0.0000 0.9294
vn -0.3377 -0.0000 0.9412
vn -0.3059 -0.0000 0.9521
vn -0.2737 -0.0000 0.9618
vn -0.2411 -0.0000 0.9705
vn -0.2084 -0.0000 0.9780
vn -0.1754 -0.0000 0.9845
vn -0.1424 -0.0000 0.9898
vn -0.1090 -0.0000 0.9940
vn -0.0756 -0.0000 0.9971
vn -0.0418 -0.0000 0.9991
vn -0.0082 -0.0000 1.0000
vn 0.0252 -0.0000 0.9997
vn 0.0586 -0.0000 0.9983
vn 0.0923 -0.0000 0.9957
vn 0.1257 -0.0000 0.9921
vn 0.1589 -0.0000 0.9873
vn 0.1921 -0.0000 0.9814
vn 0.2249 -0.0000 0.9744
vn 0.2574 -0.0000 0.9663
vn 0.2899 -0.0000 0.9571
vn 0.3217 -0.0000 0.9468
vn 0.3534 -0.0000 0.9355
vn 0.3847 -0.0000 0.9230
vn 0.4153 -0.0000 0.9097
vn 0.4458 -0.0000 0.8951
vn 0.4756 -0.0000 0.8797
vn 0.5047 -0.0000 0.8633
vn 0.5336 -0.0000 0.8457
vn 0.5617 -0.0000 0.8273
vn 0.5891 -0.0000 0.8080
vn 0.6159 -0.0000 0.7878
vn 0.6421 -0.0000 0.7666
vn 0.6675 -0.0000 0.7446
vn 0.6922 -0.0000 0.7217
vn 0.7160 -0.0000 0.6981
vn 0.7389 -0.0000 0.6738
vn 0.7612 -0.0000 0.6485
vn 0.7827 -0.0000 0.6224
vn 0.8031 -0.0000 0.5959
vn 0.8226 -0.0000 0.5686
vn 0.8413 -0.0000 0.5406
vn 0.8589 -0.0000 0.5122
vn 0.8757 -0.0000 0.4829
vn 0.8914 -0.0000 0.4532
vn 0.9061 -0.0000 0.4231
vn 0.9061 -0.0000 0.4232
vn 0.9198 -0.0000 0.3925
vn 0.9325 -0.0000 0.3611
vn 0.9441 -0.0000 0.3297
vn 0.9546 -0.0000 0.2979
vn 0.9641 -0.0000 0.2654
vn 0.9725 -0.0000 0.2331
vn 0.9797 -0.0000 0.2004
vn 0.9859 -0.0000 0.1672
vn 0.9910 -0.0000 0.1339
vn 0.9910 -0.0000 0.1340
vn 0.9949 -0.0000 0.1005
vn 0.9977 -0.0000 0.0671
vn -0.0000 -1.0000 -0.0000
vt 0.000900 0.000000
vt 0.000000 0.000000
vt 0.000900 -0.000079
vt 0.000000 -0.000079
vt 0.000900 -0.000157
vt 0.000000 -0.000157
vt 0.000900 -0.000236
vt 0.000000 -0.000236
vt 0.000900 -0.000314
vt 0.000000 -0.000314
vt 0.000900 -0.000393
vt 0.000000 -0.000393
vt 0.000900 -0.000471
vt 0.000000 -0.000471
vt 0.000900 -0.000550
vt 0.000000 -0.000550
vt 0.000900 -0.000628
vt 0.000000 -0.000628
vt 0.000900 -0.000707
vt 0.000000 -0.000707
vt 0.000900 -0.000785
vt 0.000000 -0.000785
vt 0.000900 -0.000864
vt 0.000000 -0.000864
vt 0.000900 -0.000942
vt 0.000000 -0.000942
vt 0.000900 -0.001021
vt 0.000000 -0.001021
vt 0.000900 -0.001100
vt 0.000000 -0.001100
vt 0.000900 -0.001178
vt 0.000000 -0.001178
vt 0.000900 -0.001257
vt 0.000000 -0.001257
vt 0.000900 -0.001335
vt 0.000000 -0.001335
vt 0.000900 -0.001414
vt 0.000000 -0.001414
vt -0.001200 0.000000
vt -0.001200 0.000900
vt -0.000000 0.000900
vt -0.007800 0.000000
vt -0.007800 0.000900
vt -0.003900 0.001500
vt 0.004797 0.000678
vt 0.003900 0.001500
vt 0.004786 0.000756
vt 0.004769 0.000833
vt -0.003978 0.001497
vt -0.004056 0.001486
vt -0.004133 0.001469
vt -0.004208 0.001446
vt -0.004280 0.001416
vt -0.004350 0.001379
vt -0.004416 0.001337
vt -0.004479 0.001289
vt -0.004536 0.001236
vt -0.004589 0.001179
vt -0.004637 0.001116
vt -0.004679 0.001050
vt -0.004716 0.000980
vt -0.004746 0.000908
vt -0.004769 0.000833
vt -0.004786 0.000756
vt -0.004797 0.000678
vt 0.004800 0.000600
vt -0.004800 0.000600
vt 0.004800 -0.000600
vt -0.004800 -0.000600
vt 0.004797 -0.000678
vt -0.004797 -0.000678
vt 0.003900 -0.001500
vt -0.003900 -0.001500
vt -0.004786 -0.000756
vt -0.004769 -0.000833
vt -0.004746 -0.000908
vt -0.004716 -0.000980
vt -0.004679 -0.001050
vt -0.004637 -0.001116
vt -0.004589 -0.001179
vt -0.004536 -0.001236
vt -0.004479 -0.001289
vt -0.004416 -0.001337
vt -0.004350 -0.001379
vt -0.004280 -0.001416
vt -0.004208 -0.001446
vt -0.004133 -0.001469
vt -0.004056 -0.001486
vt -0.003978 -0.001497
vt 0.003978 -0.001497
vt 0.004056 -0.001486
vt 0.004133 -0.001469
vt 0.004208 -0.001446
vt 0.004280 -0.001416
vt 0.004350 -0.001379
vt 0.004416 -0.001337
vt 0.004479 -0.001289
vt 0.004536 -0.001236
vt 0.004589 -0.001179
vt 0.004637 -0.001116
vt 0.004679 -0.001050
vt 0.004716 -0.000980
vt 0.004746 -0.000908
vt 0.004769 -0.000833
vt 0.004786 -0.000756
vt 0.004746 0.000908
vt 0.004716 0.000980
vt 0.004679 0.001050
vt 0.004637 0.001116
vt 0.004589 0.001179
vt 0.004536 0.001236
vt 0.004479 0.001289
vt 0.004416 0.001337
vt 0.004350 0.001379
vt 0.004280 0.001416
vt 0.004208 0.001446
vt 0.004133 0.001469
vt 0.004056 0.001486
vt 0.003978 0.001497
vt -0.001500 -0.000218
vt -0.001500 0.000000
vt -0.000000 0.000218
vt -0.001500 0.000218
vt -0.000000 0.000437
vt -0.001500 0.000437
vt -0.000000 0.000655
vt -0.001500 0.000655
vt -0.000000 0.000874
vt -0.001500 0.000874
vt -0.000000 0.001092
vt -0.001500 0.001092
vt -0.000000 0.001310
vt -0.001500 0.001310
vt -0.000000 0.001529
vt -0.001500 0.001529
vt -0.000000 0.001747
vt -0.001500 0.001747
vt -0.000000 0.001966
vt -0.001500 0.001966
vt -0.000000 0.002184
vt -0.001500 0.002184
vt -0.000000 0.002402
vt -0.001500 0.002402
vt -0.000000 0.002621
vt -0.001500 0.002621
vt -0.000000 0.002839
vt -0.001500 0.002839
vt -0.000000 0.003058
vt -0.001500 0.003058
vt -0.000000 0.003276
vt -0.001500 0.003276
vt -0.000000 0.003494
vt -0.001500 0.003494
vt -0.000000 0.003713
vt -0.001500 0.003713
vt -0.000000 0.003931
vt -0.001500 0.003931
vt -0.000000 0.004150
vt -0.001500 0.004150
vt -0.000000 0.004368
vt -0.001500 0.004368
vt -0.000000 0.004586
vt -0.001500 0.004586
vt -0.000000 0.004805
vt -0.001500 0.004805
vt -0.000000 0.005023
vt -0.001500 0.005023
vt -0.000000 0.005242
vt -0.001500 0.005242
vt -0.000000 0.005460
vt -0.001500 0.005460
vt -0.000000 0.005678
vt -0.001500 0.005678
vt -0.000000 0.005897
vt -0.001500 0.005897
vt -0.000000 0.006115
vt -0.001500 0.006115
vt -0.000000 0.006334
vt -0.001500 0.006334
vt -0.000000 0.006552
vt -0.001500 0.006552
vt -0.000000 0.006770
vt -0.001500 0.006770
vt -0.000000 0.006989
vt -0.001500 0.006989
vt -0.000000 0.007207
vt -0.001500 0.007207
vt -0.000000 0.007426
vt -0.001500 0.007426
vt -0.000000 0.007644
vt -0.001500 0.007644
vt -0.000000 0.007862
vt -0.001500 0.007862
vt -0.000000 0.008081
vt -0.001500 0.008081
vt -0.000000 0.008299
vt -0.001500 0.008299
vt -0.000000 0.008518
vt -0.001500 0.008518
vt -0.000000 0.008736
vt -0.001500 0.008736
vt -0.000000 0.008954
vt -0.001500 0.008954
vt -0.000000 0.009173
vt -0.001500 0.009173
vt -0.000000 0.009391
vt -0.001500 0.009391
vt -0.000000 0.009610
vt -0.001500 0.009610
vt -0.000000 0.009828
vt -0.001500 0.009828
vt -0.000000 0.010046
vt -0.001500 0.010046
vt -0.000000 0.010265
vt -0.001500 0.010265
vt -0.000000 0.010483
vt -0.001500 0.010483
vt -0.000000 0.010702
vt -0.001500 0.010702
vt -0.000000 0.010920
vt -0.001500 0.010920
vt -0.000000 0.011138
vt -0.001500 0.011138
vt -0.000000 0.011357
vt -0.001500 0.011357
vt -0.000000 0.011575
vt -0.001500 0.011575
vt -0.000000 0.011794
vt -0.001500 0.011794
vt -0.000000 0.012012
vt -0.001500 0.012012
vt -0.000000 0.012230
vt -0.001500 0.012230
vt -0.000000 0.012449
vt -0.001500 0.012449
vt -0.000000 0.012667
vt -0.001500 0.012667
vt -0.000000 0.012886
vt -0.001500 0.012886
vt -0.000000 0.013104
vt -0.001500 0.013104
vt -0.000000 0.013322
vt -0.001500 0.013322
vt -0.000000 0.013541
vt -0.001500 0.013541
vt -0.000000 0.013759
vt -0.001500 0.013759
vt -0.000000 0.013978
vt -0.001500 0.013978
vt -0.000000 0.014196
vt -0.001500 0.014196
vt -0.000000 0.014414
vt -0.001500 0.014414
vt -0.000000 0.014633
vt -0.001500 0.014633
vt -0.000000 0.014851
vt -0.001500 0.014851
vt -0.000000 0.015070
vt -0.001500 0.015070
vt -0.000000 0.015288
vt -0.001500 0.015288
vt -0.000000 0.015506
vt -0.001500 0.015506
vt -0.000000 0.015725
vt -0.001500 0.015725
vt -0.000000 0.015943
vt -0.001500 0.015943
vt -0.000000 0.016162
vt -0.001500 0.016162
vt -0.000000 0.016380
vt -0.001500 0.016380
vt -0.000000 0.016598
vt -0.001500 0.016598
vt -0.000000 0.016817
vt -0.001500 0.016817
vt -0.000000 0.017035
vt -0.001500 0.017035
vt -0.000000 0.017254
vt -0.001500 0.017254
vt -0.000000 0.017472
vt -0.001500 0.017472
vt -0.000000 0.017690
vt -0.001500 0.017690
vt -0.000000 0.017909
vt -0.001500 0.017909
vt -0.000000 0.018127
vt -0.001500 0.018127
vt -0.000000 0.018346
vt -0.001500 0.018346
vt -0.000000 0.018564
vt -0.001500 0.018564
vt -0.000000 0.018782
vt -0.001500 0.018782
vt -0.000000 0.019001
vt -0.001500 0.019001
vt -0.000000 0.019219
vt -0.001500 0.019219
vt -0.000000 0.019438
vt -0.001500 0.019438
vt -0.000000 0.019656
vt -0.001500 0.019656
vt -0.000000 0.019874
vt -0.001500 0.019874
vt -0.000000 0.020093
vt -0.001500 0.020093
vt -0.000000 0.020311
vt -0.001500 0.020311
vt -0.001500 -0.020530
vt 0.000000 -0.020530
vt -0.000000 -0.020311
vt -0.001500 -0.020311
vt -0.000000 -0.020093
vt -0.001500 -0.020093
vt -0.000000 -0.019874
vt -0.001500 -0.019874
vt -0.000000 -0.019656
vt -0.001500 -0.019656
vt -0.000000 -0.019438
vt -0.001500 -0.019438
vt -0.000000 -0.019219
vt -0.001500 -0.019219
vt -0.000000 -0.019001
vt -0.001500 -0.019001
vt -0.000000 -0.018782
vt -0.001500 -0.018782
vt -0.000000 -0.018564
vt -0.001500 -0.018564
vt -0.000000 -0.018346
vt -0.001500 -0.018346
vt -0.000000 -0.018127
vt -0.001500 -0.018127
vt -0.000000 -0.017909
vt -0.001500 -0.017909
vt -0.000000 -0.017690
vt -0.001500 -0.017690
vt -0.000000 -0.017472
vt -0.001500 -0.017472
vt -0.000000 -0.017254
vt -0.001500 -0.017254
vt -0.000000 -0.017035
vt -0.001500 -0.017035
vt -0.000000 -0.016817
vt -0.001500 -0.016817
vt -0.000000 -0.016598
vt -0.001500 -0.016598
vt -0.000000 -0.016380
vt -0.001500 -0.016380
vt -0.000000 -0.016162
vt -0.001500 -0.016162
vt -0.000000 -0.015943
vt -0.001500 -0.015943
vt -0.000000 -0.015725
vt -0.001500 -0.015725
vt -0.000000 -0.015506
vt -0.001500 -0.015506
vt -0.000000 -0.015288
vt -0.001500 -0.015288
vt -0.000000 -0.015070
vt -0.001500 -0.015070
vt -0.000000 -0.014851
vt -0.001500 -0.014851
vt -0.000000 -0.014633
vt -0.001500 -0.014633
vt -0.000000 -0.014414
vt -0.001500 -0.014414
vt -0.000000 -0.014196
vt -0.001500 -0.014196
vt -0.000000 -0.013978
vt -0.001500 -0.013978
vt -0.000000 -0.013759
vt -0.001500 -0.013759
vt -0.000000 -0.013541
vt -0.001500 -0.013541
vt -0.000000 -0.013322
vt -0.001500 -0.013322
vt -0.000000 -0.013104
vt -0.001500 -0.013104
vt -0.000000 -0.012886
vt -0.001500 -0.012886
vt -0.000000 -0.012667
vt -0.001500 -0.012667
vt -0.000000 -0.012449
vt -0.001500 -0.012449
vt -0.000000 -0.012230
vt -0.001500 -0.012230
vt -0.000000 -0.012012
vt -0.001500 -0.012012
vt -0.000000 -0.011794
vt -0.001500 -0.011794
vt -0.000000 -0.011575
vt -0.001500 -0.011575
vt -0.000000 -0.011357
vt -0.001500 -0.011357
vt -0.000000 -0.011138
vt -0.001500 -0.011138
vt -0.000000 -0.010920
vt -0.001500 -0.010920
vt -0.000000 -0.010702
vt -0.001500 -0.010702
vt -0.000000 -0.010483
vt -0.001500 -0.010483
vt -0.000000 -0.010265
vt -0.001500 -0.010265
vt -0.000000 -0.010046
vt -0.001500 -0.010046
vt -0.000000 -0.009828
vt -0.001500 -0.009828
vt -0.000000 -0.009610
vt -0.001500 -0.009610
vt -0.000000 -0.009391
vt -0.001500 -0.009391
vt -0.000000 -0.009173
vt -0.001500 -0.009173
vt -0.000000 -0.008954
vt -0.001500 -0.008954
vt -0.000000 -0.008736
vt -0.001500 -0.008736
vt -0.000000 -0.008518
vt -0.001500 -0.008518
vt -0.000000 -0.008299
vt -0.001500 -0.008299
vt -0.000000 -0.008081
vt -0.001500 -0.008081
vt -0.000000 -0.007862
vt -0.001500 -0.007862
vt -0.000000 -0.007644
vt -0.001500 -0.007644
vt -0.000000 -0.007426
vt -0.001500 -0.007426
vt -0.000000 -0.007207
vt -0.001500 -0.007207
vt -0.000000 -0.006989
vt -0.001500 -0.006989
vt -0.000000 -0.006770
vt -0.001500 -0.006770
vt -0.000000 -0.006552
vt -0.001500 -0.006552
vt -0.000000 -0.006334
vt -0.001500 -0.006334
vt -0.000000 -0.006115
vt -0.001500 -0.006115
vt -0.000000 -0.005897
vt -0.001500 -0.005897
vt -0.000000 -0.005678
vt -0.001500 -0.005678
vt -0.000000 -0.005460
vt -0.001500 -0.005460
vt -0.000000 -0.005242
vt -0.001500 -0.005242
vt -0.000000 -0.005023
vt -0.001500 -0.005023
vt -0.000000 -0.004805
vt -0.001500 -0.004805
vt -0.000000 -0.004586
vt -0.001500 -0.004586
vt -0.000000 -0.004368
vt -0.001500 -0.004368
vt -0.000000 -0.004150
vt -0.001500 -0.004150
vt -0.000000 -0.003931
vt -0.001500 -0.003931
vt -0.000000 -0.003713
vt -0.001500 -0.003713
vt -0.000000 -0.003494
vt -0.001500 -0.003494
vt -0.000000 -0.003276
vt -0.001500 -0.003276
vt -0.000000 -0.003058
vt -0.001500 -0.003058
vt -0.000000 -0.002839
vt -0.001500 -0.002839
vt -0.000000 -0.002621
vt -0.001500 -0.002621
vt -0.000000 -0.002402
vt -0.001500 -0.002402
vt -0.000000 -0.002184
vt -0.001500 -0.002184
vt -0.000000 -0.001966
vt -0.001500 -0.001966
vt -0.000000 -0.001747
vt -0.001500 -0.001747
vt -0.000000 -0.001529
vt -0.001500 -0.001529
vt -0.000000 -0.001310
vt -0.001500 -0.001310
vt -0.000000 -0.001092
vt -0.001500 -0.001092
vt -0.000000 -0.000874
vt -0.001500 -0.000874
vt -0.000000 -0.000655
vt -0.001500 -0.000655
vt -0.000000 -0.000437
vt -0.001500 -0.000437
vt -0.000000 -0.000218
vt -0.006477 0.000545
vt -0.006455 0.000763
vt -0.006426 0.000979
vt -0.006389 0.001194
vt -0.006346 0.001408
vt -0.006295 0.001621
vt 0.006321 0.001515
vt 0.006267 0.001726
vt 0.006368 0.001302
vt 0.006408 0.001087
vt 0.006441 0.000871
vt 0.006500 0.000000
vt 0.006496 0.000218
vt 0.006485 0.000436
vt 0.006441 -0.000871
vt 0.006467 -0.000654
vt 0.006485 -0.000436
vt 0.006408 -0.001087
vt 0.006368 -0.001302
vt 0.006321 -0.001515
vt -0.006295 -0.001621
vt 0.006267 -0.001726
vt -0.006237 -0.001831
vt 0.006205 -0.001936
vt -0.006172 -0.002040
vt 0.006137 -0.002143
vt -0.006100 -0.002246
vt 0.006061 -0.002348
vt -0.006021 -0.002450
vt 0.005979 -0.002550
vt -0.005935 -0.002650
vt 0.005890 -0.002750
vt -0.005843 -0.002848
vt 0.005794 -0.002946
vt -0.005744 -0.003043
vt 0.005692 -0.003139
vt -0.005638 -0.003234
vt 0.005583 -0.003328
vt -0.005526 -0.003422
vt 0.005468 -0.003514
vt -0.005408 -0.003606
vt 0.005347 -0.003696
vt -0.005284 -0.003785
vt 0.005220 -0.003873
vt -0.005154 -0.003961
vt 0.005087 -0.004047
vt -0.005018 -0.004131
vt 0.004948 -0.004215
vt -0.004876 -0.004298
vt 0.004804 -0.004379
vt -0.004729 -0.004459
vt 0.004654 -0.004538
vt -0.004577 -0.004615
vt 0.004499 -0.004692
vt -0.004419 -0.004767
vt 0.004339 -0.004840
vt -0.004257 -0.004912
vt 0.004173 -0.004983
vt -0.004089 -0.005053
vt 0.004004 -0.005121
vt -0.003917 -0.005187
vt 0.003829 -0.005252
vt -0.003741 -0.005316
vt 0.003651 -0.005378
vt -0.003560 -0.005438
vt 0.003468 -0.005497
vt -0.003375 -0.005555
vt 0.003281 -0.005611
vt -0.003187 -0.005665
vt 0.003091 -0.005718
vt -0.002995 -0.005769
vt 0.002897 -0.005819
vt -0.002799 -0.005866
vt 0.002700 -0.005913
vt -0.002600 -0.005957
vt 0.002500 -0.006000
vt -0.002399 -0.006041
vt 0.002297 -0.006081
vt -0.002195 -0.006118
vt 0.002092 -0.006154
vt -0.001988 -0.006189
vt 0.001884 -0.006221
vt -0.001779 -0.006252
vt 0.001674 -0.006281
vt -0.001568 -0.006308
vt 0.001462 -0.006334
vt -0.001355 -0.006357
vt 0.001248 -0.006379
vt -0.001141 -0.006399
vt 0.001033 -0.006417
vt -0.000925 -0.006434
vt 0.000817 -0.006448
vt -0.000708 -0.006461
vt 0.000600 -0.006472
vt -0.000491 -0.006481
vt 0.000382 -0.006489
vt -0.000273 -0.006494
vt 0.000164 -0.006498
vt -0.000055 -0.006500
vt -0.006346 -0.001408
vt -0.006389 -0.001194
vt -0.006426 -0.000979
vt -0.006455 -0.000763
vt -0.006477 -0.000545
vt -0.006492 -0.000327
vt -0.006499 -0.000109
vt -0.006499 0.000109
vt -0.006492 0.000327
vt 0.006467 0.000654
vt -0.006237 0.001831
vt 0.006205 0.001936
vt -0.006172 0.002040
vt 0.006137 0.002143
vt -0.006100 0.002246
vt 0.006061 0.002348
vt -0.006021 0.002450
vt 0.005979 0.002550
vt -0.005935 0.002650
vt 0.005890 0.002750
vt -0.005843 0.002848
vt 0.005794 0.002946
vt -0.005744 0.003043
vt -0.005638 0.003234
vt -0.005526 0.003422
vt -0.005408 0.003606
vt 0.005692 0.003139
vt -0.005284 0.003785
vt -0.005154 0.003961
vt -0.005018 0.004131
vt -0.004876 0.004298
vt -0.004729 0.004459
vt -0.004577 0.004615
vt -0.004419 0.004767
vt -0.004257 0.004912
vt -0.004089 0.005053
vt -0.003917 0.005187
vt -0.003741 0.005316
vt -0.003560 0.005438
vt -0.003375 0.005555
vt -0.003187 0.005665
vt -0.002995 0.005769
vt -0.002799 0.005866
vt -0.002600 0.005957
vt -0.002399 0.006041
vt -0.002195 0.006118
vt -0.001988 0.006189
vt -0.001779 0.006252
vt -0.001568 0.006308
vt -0.001355 0.006357
vt -0.001141 0.006399
vt -0.000925 0.006434
vt -0.000708 0.006461
vt -0.000491 0.006481
vt -0.000273 0.006494
vt -0.000055 0.006500
vt 0.000164 0.006498
vt 0.000382 0.006489
vt 0.000600 0.006472
vt 0.000817 0.006448
vt 0.001033 0.006417
vt 0.001248 0.006379
vt 0.001462 0.006334
vt 0.001674 0.006281
vt 0.001884 0.006221
vt 0.002092 0.006154
vt 0.002297 0.006081
vt 0.002500 0.006000
vt 0.002700 0.005913
vt 0.002897 0.005819
vt 0.003091 0.005718
vt 0.003281 0.005611
vt 0.003468 0.005497
vt 0.003651 0.005378
vt 0.003829 0.005252
vt 0.004004 0.005121
vt 0.004173 0.004983
vt 0.004339 0.004840
vt 0.004499 0.004692
vt 0.004654 0.004538
vt 0.004804 0.004379
vt 0.004948 0.004215
vt 0.005087 0.004047
vt 0.005220 0.003873
vt 0.005347 0.003696
vt 0.005468 0.003514
vt 0.005583 0.003328
vt 0.006496 -0.000218
vt -0.006496 -0.000218
vt 0.006499 -0.000109
vt -0.006500 0.000000
vt 0.006499 0.000109
vt -0.006496 0.000218
vt 0.006492 0.000327
vt -0.006485 0.000436
vt 0.006477 0.000545
vt -0.006467 0.000654
vt 0.006455 0.000763
vt -0.006441 0.000871
vt 0.006426 0.000979
vt -0.006408 0.001087
vt 0.006389 0.001194
vt -0.006368 0.001302
vt 0.006346 0.001408
vt -0.006321 0.001515
vt 0.006295 0.001621
vt -0.006267 0.001726
vt 0.006237 0.001831
vt -0.006205 0.001936
vt 0.006172 0.002040
vt -0.006137 0.002143
vt 0.006100 0.002246
vt -0.006061 0.002348
vt 0.006021 0.002450
vt -0.005979 0.002550
vt 0.005935 0.002650
vt -0.005890 0.002750
vt 0.005843 0.002848
vt -0.005794 0.002946
vt 0.005744 0.003043
vt -0.005692 0.003139
vt 0.005638 0.003234
vt -0.005583 0.003328
vt 0.005526 0.003422
vt -0.005468 0.003514
vt 0.005408 0.003606
vt -0.005347 0.003696
vt 0.005284 0.003785
vt -0.005220 0.003873
vt 0.005154 0.003961
vt 0.005018 0.004131
vt 0.006492 -0.000327
vt -0.006485 -0.000436
vt 0.006477 -0.000545
vt -0.006467 -0.000654
vt 0.006455 -0.000763
vt -0.006441 -0.000871
vt 0.006426 -0.000979
vt -0.006408 -0.001087
vt 0.006389 -0.001194
vt -0.006368 -0.001302
vt 0.006346 -0.001408
vt -0.006321 -0.001515
vt 0.006295 -0.001621
vt -0.006267 -0.001726
vt 0.006237 -0.001831
vt -0.006205 -0.001936
vt 0.006172 -0.002040
vt -0.006137 -0.002143
vt 0.006100 -0.002246
vt -0.006061 -0.002348
vt 0.006021 -0.002450
vt -0.005979 -0.002550
vt 0.005935 -0.002650
vt -0.005890 -0.002750
vt 0.005843 -0.002848
vt -0.005794 -0.002946
vt 0.005744 -0.003043
vt -0.005692 -0.003139
vt 0.005638 -0.003234
vt -0.005583 -0.003328
vt 0.005526 -0.003422
vt -0.005468 -0.003514
vt 0.005408 -0.003606
vt -0.005347 -0.003696
vt 0.005284 -0.003785
vt -0.005220 -0.003873
vt 0.005154 -0.003961
vt -0.005087 -0.004047
vt 0.005018 -0.004131
vt -0.004948 -0.004215
vt 0.004876 -0.004298
vt -0.004804 -0.004379
vt 0.004729 -0.004459
vt -0.004654 -0.004538
vt 0.004577 -0.004615
vt -0.004499 -0.004692
vt 0.004419 -0.004767
vt -0.004339 -0.004840
vt 0.004257 -0.004912
vt -0.004173 -0.004983
vt 0.004089 -0.005053
vt -0.004004 -0.005121
vt 0.003917 -0.005187
vt -0.003829 -0.005252
vt 0.003741 -0.005316
vt -0.003651 -0.005378
vt 0.003560 -0.005438
vt -0.003468 -0.005497
vt 0.003375 -0.005555
vt -0.003281 -0.005611
vt 0.003187 -0.005665
vt -0.003091 -0.005718
vt 0.002995 -0.005769
vt -0.002897 -0.005819
vt 0.002799 -0.005866
vt -0.002700 -0.005913
vt 0.002600 -0.005957
vt -0.002500 -0.006000
vt 0.002399 -0.006041
vt -0.002297 -0.006081
vt 0.002195 -0.006118
vt -0.002092 -0.006154
vt 0.001988 -0.006189
vt -0.001884 -0.006221
vt 0.001779 -0.006252
vt -0.001674 -0.006281
vt 0.001568 -0.006308
vt -0.001462 -0.006334
vt 0.001355 -0.006357
vt -0.001248 -0.006379
vt 0.001141 -0.006399
vt -0.001033 -0.006417
vt 0.000925 -0.006434
vt -0.000817 -0.006448
vt 0.000708 -0.006461
vt -0.000600 -0.006472
vt 0.000491 -0.006481
vt -0.000382 -0.006489
vt 0.000273 -0.006494
vt -0.000164 -0.006498
vt 0.000055 -0.006500
vt 0.004876 0.004298
vt 0.004729 0.004459
vt 0.004577 0.004615
vt 0.004419 0.004767
vt 0.004257 0.004912
vt 0.004089 0.005053
vt 0.003917 0.005187
vt 0.003741 0.005316
vt 0.003560 0.005438
vt 0.003375 0.005555
vt 0.003187 0.005665
vt 0.002995 0.005769
vt 0.002799 0.005866
vt 0.002600 0.005957
vt 0.002399 0.006041
vt 0.002195 0.006118
vt 0.001988 0.006189
vt 0.001779 0.006252
vt 0.001568 0.006308
vt 0.001355 0.006357
vt 0.001141 0.006399
vt 0.000925 0.006434
vt 0.000708 0.006461
vt 0.000491 0.006481
vt 0.000273 0.006494
vt 0.000055 0.006500
vt -0.000164 0.006498
vt -0.000382 0.006489
vt -0.000600 0.006472
vt -0.000817 0.006448
vt -0.001033 0.006417
vt -0.001248 0.006379
vt -0.001462 0.006334
vt -0.001674 0.006281
vt -0.001884 0.006221
vt -0.002092 0.006154
vt -0.002297 0.006081
vt -0.002500 0.006000
vt -0.002700 0.005913
vt -0.002897 0.005819
vt -0.003091 0.005718
vt -0.003281 0.005611
vt -0.003468 0.005497
vt -0.003651 0.005378
vt -0.003829 0.005252
vt -0.004004 0.005121
vt -0.004173 0.004983
vt -0.004339 0.004840
vt -0.004499 0.004692
vt -0.004654 0.004538
vt -0.004804 0.004379
vt -0.004948 0.004215
vt -0.005087 0.004047
s 1
usemtl 229,31,31
f 38/1/1 1/2/1 37/3/2
f 37/3/2 1/2/1 2/4/2
f 37/3/2 2/4/2 36/5/3
f 36/5/3 2/4/2 3/6/3
f 36/5/3 3/6/3 35/7/4
f 35/7/4 3/6/3 4/8/4
f 35/7/4 4/8/4 34/9/5
f 34/9/5 4/8/4 5/10/5
f 34/9/5 5/10/5 33/11/6
f 33/11/6 5/10/5 6/12/6
f 33/11/6 6/12/6 32/13/7
f 32/13/7 6/12/6 7/14/7
f 32/13/7 7/14/7 31/15/8
f 31/15/8 7/14/7 8/16/8
f 31/15/8 8/16/8 30/17/9
f 30/17/9 8/16/8 9/18/9
f 30/17/9 9/18/9 29/19/10
f 29/19/10 9/18/9 10/20/10
f 29/19/10 10/20/10 28/21/11
f 28/21/11 10/20/10 11/22/12
f 28/21/11 11/22/12 27/23/13
f 27/23/13 11/22/12 12/24/13
f 27/23/13 12/24/13 26/25/14
f 26/25/14 12/24/13 13/26/15
f 26/25/14 13/26/15 25/27/16
f 25/27/16 13/26/15 14/28/16
f 25/27/16 14/28/16 24/29/17
f 24/29/17 14/28/16 15/30/18
f 24/29/17 15/30/18 23/31/19
f 23/31/19 15/30/18 16/32/19
f 23/31/19 16/32/19 22/33/20
f 22/33/20 16/32/19 17/34/20
f 22/33/20 17/34/20 21/35/21
f 21/35/21 17/34/20 18/36/21
f 21/35/21 18/36/21 20/37/22
f 20/37/22 18/36/21 19/38/22
f 19/39/22 39/2/22 20/40/22
f 20/40/22 39/2/22 40/41/22
f 40/1/22 39/2/22 76/3/23
f 76/3/23 39/2/22 41/4/23
f 76/3/23 41/4/23 75/5/24
f 75/5/24 41/4/23 42/6/24
f 75/5/24 42/6/24 74/7/25
f 74/7/25 42/6/24 43/8/25
f 74/7/25 43/8/25 73/9/26
f 73/9/26 43/8/25 44/10/26
f 73/9/26 44/10/26 72/11/27
f 72/11/27 44/10/26 45/12/27
f 72/11/27 45/12/27 71/13/28
f 71/13/28 45/12/27 46/14/28
f 71/13/28 46/14/28 70/15/29
f 70/15/29 46/14/28 47/16/29
f 70/15/29 47/16/29 69/17/30
f 69/17/30 47/16/29 48/18/30
f 69/17/30 48/18/30 68/19/31
f 68/19/31 48/18/30 49/20/31
f 68/19/31 49/20/31 67/21/32
f 67/21/32 49/20/31 50/22/32
f 67/21/32 50/22/32 66/23/33
f 66/23/33 50/22/32 51/24/33
f 66/23/33 51/24/33 65/25/34
f 65/25/34 51/24/33 52/26/34
f 65/25/34 52/26/34 64/27/35
f 64/27/35 52/26/34 53/28/35
f 64/27/35 53/28/35 63/29/36
f 63/29/36 53/28/35 54/30/37
f 63/29/36 54/30/37 62/31/38
f 62/31/38 54/30/37 55/32/38
f 62/31/38 55/32/38 61/33/39
f 61/33/39 55/32/38 56/34/39
f 61/33/39 56/34/39 60/35/40
f 60/35/40 56/34/39 57/36/40
f 60/35/40 57/36/40 59/37/41
f 59/37/41 57/36/40 58/38/41
f 58/42/41 77/2/41 59/43/41
f 59/43/41 77/2/41 78/41/41
f 78/1/41 77/2/41 114/3/42
f 114/3/42 77/2/41 79/4/42
f 114/3/42 79/4/42 113/5/43
f 113/5/43 79/4/42 80/6/43
f 113/5/43 80/6/43 112/7/44
f 112/7/44 80/6/43 81/8/44
f 112/7/44 81/8/44 111/9/45
f 111/9/45 81/8/44 82/10/45
f 111/9/45 82/10/45 110/11/46
f 110/11/46 82/10/45 83/12/46
f 110/11/46 83/12/46 109/13/47
f 109/13/47 83/12/46 84/14/47
f 109/13/47 84/14/47 108/15/48
f 108/15/48 84/14/47 85/16/48
f 108/15/48 85/16/48 107/17/49
f 107/17/49 85/16/48 86/18/49
f 107/17/49 86/18/49 106/19/50
f 106/19/50 86/18/49 87/20/50
f 106/19/50 87/20/50 105/21/51
f 105/21/51 87/20/50 88/22/52
f 105/21/51 88/22/52 104/23/53
f 104/23/53 88/22/52 89/24/53
f 104/23/53 89/24/53 103/25/54
f 103/25/54 89/24/53 90/26/55
f 103/25/54 90/26/55 102/27/56
f 102/27/56 90/26/55 91/28/56
f 102/27/56 91/28/56 101/29/57
f 101/29/57 91/28/56 92/30/58
f 101/29/57 92/30/58 100/31/59
f 100/31/59 92/30/58 93/32/59
f 100/31/59 93/32/59 99/33/60
f 99/33/60 93/32/59 94/34/60
f 99/33/60 94/34/60 98/35/61
f 98/35/61 94/34/60 95/36/61
f 98/35/61 95/36/61 97/37/62
f 97/37/62 95/36/61 96/38/62
f 96/39/62 115/2/62 97/40/62
f 97/40/62 115/2/62 116/41/62
f 116/1/62 115/2/62 152/3/63
f 152/3/63 115/2/62 117/4/63
f 152/3/63 117/4/63 151/5/64
f 151/5/64 117/4/63 118/6/64
f 151/5/64 118/6/64 150/7/65
f 150/7/65 118/6/64 119/8/65
f 150/7/65 119/8/65 149/9/66
f 149/9/66 119/8/65 120/10/66
f 149/9/66 120/10/66 148/11/67
f 148/11/67 120/10/66 121/12/67
f 148/11/67 121/12/67 147/13/68
f 147/13/68 121/12/67 122/14/68
f 147/13/68 122/14/68 146/15/69
f 146/15/69 122/14/68 123/16/69
f 146/15/69 123/16/69 145/17/70
f 145/17/70 123/16/69 124/18/70
f 145/17/70 124/18/70 144/19/71
f 144/19/71 124/18/70 125/20/71
f 144/19/71 125/20/71 143/21/72
f 143/21/72 125/20/71 126/22/72
f 143/21/72 126/22/72 142/23/73
f 142/23/73 126/22/72 127/24/73
f 142/23/73 127/24/73 141/25/74
f 141/25/74 127/24/73 128/26/74
f 141/25/74 128/26/74 140/27/75
f 140/27/75 128/26/74 129/28/75
f 140/27/75 129/28/75 139/29/76
f 139/29/76 129/28/75 130/30/77
f 139/29/76 130/30/77 138/31/78
f 138/31/78 130/30/77 131/32/78
f 138/31/78 131/32/78 137/33/79
f 137/33/79 131/32/78 132/34/79
f 137/33/79 132/34/79 136/35/80
f 136/35/80 132/34/79 133/36/80
f 136/35/80 133/36/80 135/37/1
f 135/37/1 133/36/80 134/38/1
f 134/42/1 1/2/1 135/43/1
f 135/43/1 1/2/1 38/41/1
f 38/44/81 152/45/81 135/46/81
f 135/46/81 152/45/81 151/47/81
f 135/46/81 151/47/81 150/48/81
f 37/49/81 36/50/81 38/44/81
f 38/44/81 36/50/81 35/51/81
f 38/44/81 35/51/81 34/52/81
f 34/52/81 33/53/81 38/44/81
f 38/44/81 33/53/81 32/54/81
f 38/44/81 32/54/81 31/55/81
f 31/55/81 30/56/81 38/44/81
f 38/44/81 30/56/81 29/57/81
f 38/44/81 29/57/81 28/58/81
f 28/58/81 27/59/81 38/44/81
f 38/44/81 27/59/81 26/60/81
f 38/44/81 26/60/81 25/61/81
f 25/61/81 24/62/81 38/44/81
f 38/44/81 24/62/81 23/63/81
f 38/44/81 23/63/81 22/64/81
f 22/64/81 21/65/81 38/44/81
f 38/44/81 21/65/81 152/45/81
f 152/45/81 21/65/81 116/66/81
f 116/66/81 21/65/81 20/67/81
f 116/66/81 20/67/81 97/68/81
f 97/68/81 20/67/81 40/69/81
f 97/68/81 40/69/81 98/70/81
f 98/70/81 40/69/81 76/71/81
f 98/70/81 76/71/81 78/72/81
f 78/72/81 76/71/81 59/73/81
f 59/73/81 76/71/81 75/74/81
f 59/73/81 75/74/81 74/75/81
f 74/75/81 73/76/81 59/73/81
f 59/73/81 73/76/81 72/77/81
f 59/73/81 72/77/81 71/78/81
f 71/78/81 70/79/81 59/73/81
f 59/73/81 70/79/81 69/80/81
f 59/73/81 69/80/81 68/81/81
f 68/81/81 67/82/81 59/73/81
f 59/73/81 67/82/81 66/83/81
f 59/73/81 66/83/81 65/84/81
f 65/84/81 64/85/81 59/73/81
f 59/73/81 64/85/81 63/86/81
f 59/73/81 63/86/81 62/87/81
f 62/87/81 61/88/81 59/73/81
f 59/73/81 61/88/81 60/89/81
f 114/90/81 113/91/81 78/72/81
f 78/72/81 113/91/81 112/92/81
f 78/72/81 112/92/81 111/93/81
f 111/93/81 110/94/81 78/72/81
f 78/72/81 110/94/81 109/95/81
f 78/72/81 109/95/81 108/96/81
f 108/96/81 107/97/81 78/72/81
f 78/72/81 107/97/81 106/98/81
f 78/72/81 106/98/81 105/99/81
f 105/99/81 104/100/81 78/72/81
f 78/72/81 104/100/81 103/101/81
f 78/72/81 103/101/81 102/102/81
f 102/102/81 101/103/81 78/72/81
f 78/72/81 101/103/81 100/104/81
f 78/72/81 100/104/81 99/105/81
f 99/105/81 98/70/81 78/72/81
f 150/48/81 149/106/81 135/46/81
f 135/46/81 149/106/81 148/107/81
f 135/46/81 148/107/81 147/108/81
f 147/108/81 146/109/81 135/46/81
f 135/46/81 146/109/81 145/110/81
f 135/46/81 145/110/81 144/111/81
f 144/111/81 143/112/81 135/46/81
f 135/46/81 143/112/81 142/113/81
f 135/46/81 142/113/81 141/114/81
f 141/114/81 140/115/81 135/46/81
f 135/46/81 140/115/81 139/116/81
f 135/46/81 139/116/81 138/117/81
f 138/117/81 137/118/81 135/46/81
f 135/46/81 137/118/81 136/119/81
f 154/120/82 340/2/22 153/121/22
f 153/121/22 340/2/22 341/122/83
f 153/121/22 341/122/83 339/123/83
f 339/123/83 341/122/83 342/124/84
f 339/123/83 342/124/84 338/125/84
f 338/125/84 342/124/84 343/126/85
f 338/125/84 343/126/85 337/127/85
f 337/127/85 343/126/85 344/128/86
f 337/127/85 344/128/86 336/129/87
f 336/129/87 344/128/86 345/130/88
f 336/129/87 345/130/88 335/131/88
f 335/131/88 345/130/88 346/132/89
f 335/131/88 346/132/89 334/133/89
f 334/133/89 346/132/89 347/134/90
f 334/133/89 347/134/90 333/135/90
f 333/135/90 347/134/90 348/136/91
f 333/135/90 348/136/91 332/137/91
f 332/137/91 348/136/91 349/138/92
f 332/137/91 349/138/92 331/139/92
f 331/139/92 349/138/92 350/140/93
f 331/139/92 350/140/93 330/141/93
f 330/141/93 350/140/93 351/142/94
f 330/141/93 351/142/94 329/143/94
f 329/143/94 351/142/94 352/144/95
f 329/143/94 352/144/95 328/145/95
f 328/145/95 352/144/95 353/146/96
f 328/145/95 353/146/96 327/147/97
f 327/147/97 353/146/96 354/148/98
f 327/147/97 354/148/98 326/149/98
f 326/149/98 354/148/98 355/150/99
f 326/149/98 355/150/99 325/151/99
f 325/151/99 355/150/99 356/152/100
f 325/151/99 356/152/100 324/153/100
f 324/153/100 356/152/100 357/154/101
f 324/153/100 357/154/101 323/155/101
f 323/155/101 357/154/101 358/156/102
f 323/155/101 358/156/102 322/157/102
f 322/157/102 358/156/102 359/158/103
f 322/157/102 359/158/103 321/159/103
f 321/159/103 359/158/103 360/160/104
f 321/159/103 360/160/104 320/161/104
f 320/161/104 360/160/104 361/162/105
f 320/161/104 361/162/105 319/163/105
f 319/163/105 361/162/105 362/164/106
f 319/163/105 362/164/106 318/165/106
f 318/165/106 362/164/106 363/166/107
f 318/165/106 363/166/107 317/167/107
f 317/167/107 363/166/107 364/168/108
f 317/167/107 364/168/108 316/169/108
f 316/169/108 364/168/108 365/170/109
f 316/169/108 365/170/109 315/171/109
f 315/171/109 365/170/109 366/172/110
f 315/171/109 366/172/110 314/173/110
f 314/173/110 366/172/110 367/174/111
f 314/173/110 367/174/111 313/175/111
f 313/175/111 367/174/111 368/176/112
f 313/175/111 368/176/112 312/177/112
f 312/177/112 368/176/112 369/178/113
f 312/177/112 369/178/113 311/179/113
f 311/179/113 369/178/113 370/180/114
f 311/179/113 370/180/114 310/181/114
f 310/181/114 370/180/114 371/182/115
f 310/181/114 371/182/115 309/183/115
f 309/183/115 371/182/115 372/184/116
f 309/183/115 372/184/116 308/185/116
f 308/185/116 372/184/116 373/186/117
f 308/185/116 373/186/117 307/187/117
f 307/187/117 373/186/117 374/188/118
f 307/187/117 374/188/118 306/189/118
f 306/189/118 374/188/118 375/190/119
f 306/189/118 375/190/119 305/191/119
f 305/191/119 375/190/119 376/192/120
f 305/191/119 376/192/120 304/193/120
f 304/193/120 376/192/120 377/194/121
f 304/193/120 377/194/121 303/195/121
f 303/195/121 377/194/121 378/196/122
f 303/195/121 378/196/122 302/197/122
f 302/197/122 378/196/122 379/198/123
f 302/197/122 379/198/123 301/199/123
f 301/199/123 379/198/123 380/200/124
f 301/199/123 380/200/124 300/201/124
f 300/201/124 380/200/124 381/202/125
f 300/201/124 381/202/125 299/203/125
f 299/203/125 381/202/125 382/204/126
f 299/203/125 382/204/126 298/205/126
f 298/205/126 382/204/126 383/206/127
f 298/205/126 383/206/127 297/207/127
f 297/207/127 383/206/127 384/208/128
f 297/207/127 384/208/128 296/209/128
f 296/209/128 384/208/128 385/210/129
f 296/209/128 385/210/129 295/211/129
f 295/211/129 385/210/129 386/212/130
f 295/211/129 386/212/130 294/213/130
f 294/213/130 386/212/130 387/214/131
f 294/213/130 387/214/131 293/215/131
f 293/215/131 387/214/131 388/216/132
f 293/215/131 388/216/132 292/217/132
f 292/217/132 388/216/132 389/218/133
f 292/217/132 389/218/133 291/219/133
f 291/219/133 389/218/133 390/220/134
f 291/219/133 390/220/134 290/221/134
f 290/221/134 390/220/134 391/222/135
f 290/221/134 391/222/135 289/223/135
f 289/223/135 391/222/135 392/224/136
f 289/223/135 392/224/136 288/225/136
f 288/225/136 392/224/136 393/226/137
f 288/225/136 393/226/137 287/227/137
f 287/227/137 393/226/137 394/228/138
f 287/227/137 394/228/138 286/229/138
f 286/229/138 394/228/138 395/230/139
f 286/229/138 395/230/139 285/231/139
f 285/231/139 395/230/139 396/232/140
f 285/231/139 396/232/140 284/233/140
f 284/233/140 396/232/140 397/234/141
f 284/233/140 397/234/141 283/235/141
f 283/235/141 397/234/141 398/236/142
f 283/235/141 398/236/142 282/237/142
f 282/237/142 398/236/142 399/238/143
f 282/237/142 399/238/143 281/239/143
f 281/239/143 399/238/143 400/240/144
f 281/239/143 400/240/144 280/241/144
f 280/241/144 400/240/144 401/242/145
f 280/241/144 401/242/145 279/243/145
f 279/243/145 401/242/145 402/244/146
f 279/243/145 402/244/146 278/245/146
f 278/245/146 402/244/146 403/246/147
f 278/245/146 403/246/147 277/247/147
f 277/247/147 403/246/147 404/248/148
f 277/247/147 404/248/148 276/249/148
f 276/249/148 404/248/148 405/250/149
f 276/249/148 405/250/149 275/251/149
f 275/251/149 405/250/149 406/252/150
f 275/251/149 406/252/150 274/253/150
f 274/253/150 406/252/150 407/254/151
f 274/253/150 407/254/151 273/255/151
f 273/255/151 407/254/151 408/256/152
f 273/255/151 408/256/152 272/257/152
f 272/257/152 408/256/152 409/258/153
f 272/257/152 409/258/153 271/259/153
f 271/259/153 409/258/153 410/260/154
f 271/259/153 410/260/154 270/261/154
f 270/261/154 410/260/154 411/262/155
f 270/261/154 411/262/155 269/263/155
f 269/263/155 411/262/155 412/264/156
f 269/263/155 412/264/156 268/265/156
f 268/265/156 412/264/156 413/266/157
f 268/265/156 413/266/157 267/267/157
f 267/267/157 413/266/157 414/268/158
f 267/267/157 414/268/158 266/269/158
f 266/269/158 414/268/158 415/270/159
f 266/269/158 415/270/159 265/271/159
f 265/271/159 415/270/159 416/272/160
f 265/271/159 416/272/160 264/273/160
f 264/273/160 416/272/160 417/274/161
f 264/273/160 417/274/161 263/275/161
f 263/275/161 417/274/161 418/276/162
f 263/275/161 418/276/162 262/277/162
f 262/277/162 418/276/162 419/278/163
f 262/277/162 419/278/163 261/279/163
f 261/279/163 419/278/163 420/280/164
f 261/279/163 420/280/164 260/281/164
f 260/281/164 420/280/164 421/282/165
f 260/281/164 421/282/165 259/283/165
f 259/283/165 421/282/165 422/284/166
f 259/283/165 422/284/166 258/285/166
f 258/285/166 422/284/166 423/286/167
f 258/285/166 423/286/167 257/287/167
f 257/287/167 423/286/167 424/288/168
f 257/287/167 424/288/168 256/289/168
f 256/289/168 424/288/168 425/290/169
f 256/289/168 425/290/169 255/291/169
f 255/291/169 425/290/169 426/292/170
f 255/291/169 426/292/170 254/293/170
f 254/293/170 426/292/170 427/294/171
f 254/293/170 427/294/171 253/295/171
f 253/295/171 427/294/171 428/296/172
f 253/295/171 428/296/172 252/297/172
f 252/297/172 428/296/172 429/298/173
f 252/297/172 429/298/173 251/299/173
f 251/299/173 429/298/173 430/300/174
f 251/299/173 430/300/174 250/301/174
f 250/301/174 430/300/174 431/302/175
f 250/301/174 431/302/175 249/303/175
f 249/303/175 431/302/175 432/304/176
f 249/303/175 432/304/176 248/305/176
f 248/305/176 432/304/176 433/306/177
f 248/305/176 433/306/177 247/307/177
f 247/308/177 433/309/177 434/310/178
f 247/308/177 434/310/178 246/311/178
f 246/311/178 434/310/178 435/312/179
f 246/311/178 435/312/179 245/313/179
f 245/313/179 435/312/179 436/314/180
f 245/313/179 436/314/180 244/315/180
f 244/315/180 436/314/180 437/316/181
f 244/315/180 437/316/181 243/317/181
f 243/317/181 437/316/181 438/318/182
f 243/317/181 438/318/182 242/319/182
f 242/319/182 438/318/182 439/320/183
f 242/319/182 439/320/183 241/321/183
f 241/321/183 439/320/183 440/322/184
f 241/321/183 440/322/184 240/323/184
f 240/323/184 440/322/184 441/324/185
f 240/323/184 441/324/185 239/325/185
f 239/325/185 441/324/185 442/326/186
f 239/325/185 442/326/186 238/327/186
f 238/327/186 442/326/186 443/328/187
f 238/327/186 443/328/187 237/329/187
f 237/329/187 443/328/187 444/330/188
f 237/329/187 444/330/188 236/331/188
f 236/331/188 444/330/188 445/332/189
f 236/331/188 445/332/189 235/333/189
f 235/333/189 445/332/189 446/334/190
f 235/333/189 446/334/190 234/335/190
f 234/335/190 446/334/190 447/336/191
f 234/335/190 447/336/191 233/337/191
f 233/337/191 447/336/191 448/338/192
f 233/337/191 448/338/192 232/339/192
f 232/339/192 448/338/192 449/340/193
f 232/339/192 449/340/193 231/341/193
f 231/341/193 449/340/193 450/342/194
f 231/341/193 450/342/194 230/343/194
f 230/343/194 450/342/194 451/344/195
f 230/343/194 451/344/195 229/345/195
f 229/345/195 451/344/195 452/346/196
f 229/345/195 452/346/196 228/347/196
f 228/347/196 452/346/196 453/348/197
f 228/347/196 453/348/197 227/349/197
f 227/349/197 453/348/197 454/350/198
f 227/349/197 454/350/198 226/351/198
f 226/351/198 454/350/198 455/352/199
f 226/351/198 455/352/199 225/353/199
f 225/353/199 455/352/199 456/354/200
f 225/353/199 456/354/200 224/355/200
f 224/355/200 456/354/200 457/356/201
f 224/355/200 457/356/201 223/357/201
f 223/357/201 457/356/201 458/358/202
f 223/357/201 458/358/202 222/359/202
f 222/359/202 458/358/202 459/360/203
f 222/359/202 459/360/203 221/361/203
f 221/361/203 459/360/203 460/362/204
f 221/361/203 460/362/204 220/363/204
f 220/363/204 460/362/204 461/364/205
f 220/363/204 461/364/205 219/365/205
f 219/365/205 461/364/205 462/366/206
f 219/365/205 462/366/206 218/367/206
f 218/367/206 462/366/206 463/368/207
f 218/367/206 463/368/207 217/369/207
f 217/369/207 463/368/207 464/370/208
f 217/369/207 464/370/208 216/371/208
f 216/371/208 464/370/208 465/372/209
f 216/371/208 465/372/209 215/373/209
f 215/373/209 465/372/209 466/374/210
f 215/373/209 466/374/210 214/375/210
f 214/375/210 466/374/210 467/376/211
f 214/375/210 467/376/211 213/377/211
f 213/377/211 467/376/211 468/378/212
f 213/377/211 468/378/212 212/379/212
f 212/379/212 468/378/212 469/380/213
f 212/379/212 469/380/213 211/381/213
f 211/381/213 469/380/213 470/382/214
f 211/381/213 470/382/214 210/383/214
f 210/383/214 470/382/214 471/384/215
f 210/383/214 471/384/215 209/385/215
f 209/385/215 471/384/215 472/386/216
f 209/385/215 472/386/216 208/387/216
f 208/387/216 472/386/216 473/388/217
f 208/387/216 473/388/217 207/389/217
f 207/389/217 473/388/217 474/390/218
f 207/389/217 474/390/218 206/391/218
f 206/391/218 474/390/218 475/392/219
f 206/391/218 475/392/219 205/393/219
f 205/393/219 475/392/219 476/394/220
f 205/393/219 476/394/220 204/395/220
f 204/395/220 476/394/220 477/396/221
f 204/395/220 477/396/221 203/397/221
f 203/397/221 477/396/221 478/398/222
f 203/397/221 478/398/222 202/399/222
f 202/399/222 478/398/222 479/400/223
f 202/399/222 479/400/223 201/401/223
f 201/401/223 479/400/223 480/402/224
f 201/401/223 480/402/224 200/403/224
f 200/403/224 480/402/224 481/404/225
f 200/403/224 481/404/225 199/405/225
f 199/405/225 481/404/225 482/406/226
f 199/405/225 482/406/226 198/407/226
f 198/407/226 482/406/226 483/408/227
f 198/407/226 483/408/227 197/409/227
f 197/409/227 483/408/227 484/410/228
f 197/409/227 484/410/228 196/411/228
f 196/411/228 484/410/228 485/412/229
f 196/411/228 485/412/229 195/413/229
f 195/413/229 485/412/229 486/414/230
f 195/413/229 486/414/230 194/415/230
f 194/415/230 486/414/230 487/416/231
f 194/415/230 487/416/231 193/417/231
f 193/417/231 487/416/231 488/418/232
f 193/417/231 488/418/232 192/419/232
f 192/419/232 488/418/232 489/420/233
f 192/419/232 489/420/233 191/421/233
f 191/421/233 489/420/233 490/422/234
f 191/421/233 490/422/234 190/423/234
f 190/423/234 490/422/234 491/424/235
f 190/423/234 491/424/235 189/425/235
f 189/425/235 491/424/235 492/426/236
f 189/425/235 492/426/236 188/427/236
f 188/427/236 492/426/236 493/428/237
f 188/427/236 493/428/237 187/429/237
f 187/429/237 493/428/237 494/430/238
f 187/429/237 494/430/238 186/431/238
f 186/431/238 494/430/238 495/432/239
f 186/431/238 495/432/239 185/433/239
f 185/433/239 495/432/239 496/434/240
f 185/433/239 496/434/240 184/435/240
f 184/435/240 496/434/240 497/436/241
f 184/435/240 497/436/241 183/437/241
f 183/437/241 497/436/241 498/438/242
f 183/437/241 498/438/242 182/439/242
f 182/439/242 498/438/242 499/440/243
f 182/439/242 499/440/243 181/441/243
f 181/441/243 499/440/243 500/442/244
f 181/441/243 500/442/244 180/443/244
f 180/443/244 500/442/244 501/444/245
f 180/443/244 501/444/245 179/445/245
f 179/445/245 501/444/245 502/446/246
f 179/445/245 502/446/246 178/447/246
f 178/447/246 502/446/246 503/448/247
f 178/447/246 503/448/247 177/449/247
f 177/449/247 503/448/247 504/450/248
f 177/449/247 504/450/248 176/451/248
f 176/451/248 504/450/248 505/452/249
f 176/451/248 505/452/249 175/453/249
f 175/453/249 505/452/249 506/454/250
f 175/453/249 506/454/250 174/455/250
f 174/455/250 506/454/250 507/456/251
f 174/455/250 507/456/251 173/457/251
f 173/457/251 507/456/251 508/458/252
f 173/457/251 508/458/252 172/459/252
f 172/459/252 508/458/252 509/460/253
f 172/459/252 509/460/253 171/461/253
f 171/461/253 509/460/253 510/462/254
f 171/461/253 510/462/254 170/463/254
f 170/463/254 510/462/254 511/464/255
f 170/463/254 511/464/255 169/465/255
f 169/465/255 511/464/255 512/466/256
f 169/465/255 512/466/256 168/467/256
f 168/467/256 512/466/256 513/468/257
f 168/467/256 513/468/257 167/469/257
f 167/469/257 513/468/257 514/470/258
f 167/469/257 514/470/258 166/471/259
f 166/471/259 514/470/258 515/472/260
f 166/471/259 515/472/260 165/473/260
f 165/473/260 515/472/260 516/474/261
f 165/473/260 516/474/261 164/475/261
f 164/475/261 516/474/261 517/476/262
f 164/475/261 517/476/262 163/477/262
f 163/477/262 517/476/262 518/478/263
f 163/477/262 518/478/263 162/479/263
f 162/479/263 518/478/263 519/480/264
f 162/479/263 519/480/264 161/481/264
f 161/481/264 519/480/264 520/482/265
f 161/481/264 520/482/265 160/483/265
f 160/483/265 520/482/265 521/484/266
f 160/483/265 521/484/266 159/485/266
f 159/485/266 521/484/266 522/486/267
f 159/485/266 522/486/267 158/487/267
f 158/487/267 522/486/267 523/488/268
f 158/487/267 523/488/268 157/489/269
f 157/489/269 523/488/268 524/490/270
f 157/489/269 524/490/270 156/491/270
f 156/491/270 524/490/270 525/492/271
f 156/491/270 525/492/271 155/493/271
f 155/493/271 525/492/271 526/494/82
f 155/493/271 526/494/82 154/120/82
f 154/120/82 526/494/82 340/2/22
f 39/69/81 19/67/81 249/495/81
f 249/495/81 19/67/81 18/65/81
f 249/495/81 18/65/81 17/64/81
f 249/495/81 17/64/81 250/496/81
f 250/496/81 17/64/81 16/63/81
f 250/496/81 16/63/81 15/62/81
f 250/496/81 15/62/81 251/497/81
f 251/497/81 15/62/81 14/61/81
f 251/497/81 14/61/81 13/60/81
f 13/60/81 12/59/81 251/497/81
f 251/497/81 12/59/81 11/58/81
f 251/497/81 11/58/81 252/498/81
f 252/498/81 11/58/81 10/57/81
f 252/498/81 10/57/81 9/56/81
f 9/56/81 8/55/81 252/498/81
f 252/498/81 8/55/81 7/54/81
f 252/498/81 7/54/81 253/499/81
f 253/499/81 7/54/81 6/53/81
f 253/499/81 6/53/81 5/52/81
f 5/52/81 4/51/81 253/499/81
f 253/499/81 4/51/81 3/50/81
f 253/499/81 3/50/81 2/49/81
f 2/49/81 1/44/81 253/499/81
f 253/499/81 1/44/81 254/500/81
f 254/500/81 1/44/81 333/501/81
f 254/500/81 333/501/81 332/502/81
f 1/44/81 134/46/81 333/501/81
f 333/501/81 134/46/81 133/119/81
f 333/501/81 133/119/81 132/118/81
f 132/118/81 131/117/81 333/501/81
f 333/501/81 131/117/81 130/116/81
f 333/501/81 130/116/81 129/115/81
f 129/115/81 128/114/81 333/501/81
f 333/501/81 128/114/81 127/113/81
f 333/501/81 127/113/81 126/112/81
f 126/112/81 125/111/81 333/501/81
f 333/501/81 125/111/81 124/110/81
f 333/501/81 124/110/81 123/109/81
f 123/109/81 122/108/81 333/501/81
f 333/501/81 122/108/81 121/107/81
f 333/501/81 121/107/81 120/106/81
f 333/501/81 120/106/81 334/503/81
f 334/503/81 120/106/81 119/48/81
f 334/503/81 119/48/81 335/504/81
f 335/504/81 119/48/81 118/47/81
f 335/504/81 118/47/81 336/505/81
f 336/505/81 118/47/81 117/45/81
f 336/505/81 117/45/81 115/66/81
f 96/68/81 153/506/81 115/66/81
f 115/66/81 153/506/81 339/507/81
f 115/66/81 339/507/81 338/508/81
f 95/70/81 157/509/81 96/68/81
f 96/68/81 157/509/81 156/510/81
f 96/68/81 156/510/81 155/511/81
f 95/70/81 94/105/81 157/509/81
f 157/509/81 94/105/81 158/512/81
f 158/512/81 94/105/81 93/104/81
f 158/512/81 93/104/81 159/513/81
f 159/513/81 93/104/81 92/103/81
f 159/513/81 92/103/81 160/514/81
f 160/514/81 92/103/81 91/102/81
f 160/514/81 91/102/81 90/101/81
f 90/101/81 89/100/81 160/514/81
f 160/514/81 89/100/81 88/99/81
f 160/514/81 88/99/81 87/98/81
f 87/98/81 86/97/81 160/514/81
f 160/514/81 86/97/81 85/96/81
f 160/514/81 85/96/81 84/95/81
f 84/95/81 83/94/81 160/514/81
f 160/514/81 83/94/81 82/93/81
f 160/514/81 82/93/81 81/92/81
f 81/92/81 80/91/81 160/514/81
f 160/514/81 80/91/81 79/90/81
f 160/514/81 79/90/81 77/72/81
f 77/72/81 58/73/81 160/514/81
f 160/514/81 58/73/81 239/515/81
f 160/514/81 239/515/81 161/516/81
f 161/516/81 239/515/81 238/517/81
f 161/516/81 238/517/81 162/518/81
f 162/518/81 238/517/81 237/519/81
f 162/518/81 237/519/81 163/520/81
f 163/520/81 237/519/81 236/521/81
f 163/520/81 236/521/81 164/522/81
f 164/522/81 236/521/81 235/523/81
f 164/522/81 235/523/81 165/524/81
f 165/524/81 235/523/81 234/525/81
f 165/524/81 234/525/81 166/526/81
f 166/526/81 234/525/81 233/527/81
f 166/526/81 233/527/81 167/528/81
f 167/528/81 233/527/81 232/529/81
f 167/528/81 232/529/81 168/530/81
f 168/530/81 232/529/81 231/531/81
f 168/530/81 231/531/81 169/532/81
f 169/532/81 231/531/81 230/533/81
f 169/532/81 230/533/81 170/534/81
f 170/534/81 230/533/81 229/535/81
f 170/534/81 229/535/81 171/536/81
f 171/536/81 229/535/81 228/537/81
f 171/536/81 228/537/81 172/538/81
f 172/538/81 228/537/81 227/539/81
f 172/538/81 227/539/81 173/540/81
f 173/540/81 227/539/81 226/541/81
f 173/540/81 226/541/81 174/542/81
f 174/542/81 226/541/81 225/543/81
f 174/542/81 225/543/81 175/544/81
f 175/544/81 225/543/81 224/545/81
f 175/544/81 224/545/81 176/546/81
f 176/546/81 224/545/81 223/547/81
f 176/546/81 223/547/81 177/548/81
f 177/548/81 223/547/81 222/549/81
f 177/548/81 222/549/81 178/550/81
f 178/550/81 222/549/81 221/551/81
f 178/550/81 221/551/81 179/552/81
f 179/552/81 221/551/81 220/553/81
f 179/552/81 220/553/81 180/554/81
f 180/554/81 220/553/81 219/555/81
f 180/554/81 219/555/81 181/556/81
f 181/556/81 219/555/81 218/557/81
f 181/556/81 218/557/81 182/558/81
f 182/558/81 218/557/81 217/559/81
f 182/558/81 217/559/81 183/560/81
f 183/560/81 217/559/81 216/561/81
f 183/560/81 216/561/81 184/562/81
f 184/562/81 216/561/81 215/563/81
f 184/562/81 215/563/81 185/564/81
f 185/564/81 215/563/81 214/565/81
f 185/564/81 214/565/81 186/566/81
f 186/566/81 214/565/81 213/567/81
f 186/566/81 213/567/81 187/568/81
f 187/568/81 213/567/81 212/569/81
f 187/568/81 212/569/81 188/570/81
f 188/570/81 212/569/81 211/571/81
f 188/570/81 211/571/81 189/572/81
f 189/572/81 211/571/81 210/573/81
f 189/572/81 210/573/81 190/574/81
f 190/574/81 210/573/81 209/575/81
f 190/574/81 209/575/81 191/576/81
f 191/576/81 209/575/81 208/577/81
f 191/576/81 208/577/81 192/578/81
f 192/578/81 208/577/81 207/579/81
f 192/578/81 207/579/81 193/580/81
f 193/580/81 207/579/81 206/581/81
f 193/580/81 206/581/81 194/582/81
f 194/582/81 206/581/81 205/583/81
f 194/582/81 205/583/81 195/584/81
f 195/584/81 205/583/81 204/585/81
f 195/584/81 204/585/81 196/586/81
f 196/586/81 204/585/81 203/587/81
f 196/586/81 203/587/81 197/588/81
f 197/588/81 203/587/81 202/589/81
f 197/588/81 202/589/81 198/590/81
f 198/590/81 202/589/81 201/591/81
f 198/590/81 201/591/81 199/592/81
f 199/592/81 201/591/81 200/593/81
f 58/73/81 57/89/81 239/515/81
f 239/515/81 57/89/81 56/88/81
f 239/515/81 56/88/81 55/87/81
f 55/87/81 54/86/81 239/515/81
f 239/515/81 54/86/81 53/85/81
f 239/515/81 53/85/81 240/594/81
f 240/594/81 53/85/81 52/84/81
f 240/594/81 52/84/81 51/83/81
f 51/83/81 50/82/81 240/594/81
f 240/594/81 50/82/81 49/81/81
f 240/594/81 49/81/81 241/595/81
f 241/595/81 49/81/81 48/80/81
f 241/595/81 48/80/81 47/79/81
f 47/79/81 46/78/81 241/595/81
f 241/595/81 46/78/81 45/77/81
f 241/595/81 45/77/81 242/596/81
f 242/596/81 45/77/81 44/76/81
f 242/596/81 44/76/81 43/75/81
f 242/596/81 43/75/81 243/597/81
f 243/597/81 43/75/81 42/74/81
f 243/597/81 42/74/81 41/71/81
f 41/71/81 39/69/81 243/597/81
f 243/597/81 39/69/81 244/598/81
f 244/598/81 39/69/81 245/599/81
f 245/599/81 39/69/81 246/600/81
f 246/600/81 39/69/81 247/601/81
f 247/601/81 39/69/81 248/602/81
f 248/602/81 39/69/81 249/495/81
f 338/508/81 337/603/81 115/66/81
f 115/66/81 337/603/81 336/505/81
f 254/500/81 332/502/81 255/604/81
f 255/604/81 332/502/81 331/605/81
f 255/604/81 331/605/81 256/606/81
f 256/606/81 331/605/81 330/607/81
f 256/606/81 330/607/81 257/608/81
f 257/608/81 330/607/81 329/609/81
f 257/608/81 329/609/81 258/610/81
f 258/610/81 329/609/81 328/611/81
f 258/610/81 328/611/81 259/612/81
f 259/612/81 328/611/81 327/613/81
f 259/612/81 327/613/81 260/614/81
f 260/614/81 327/613/81 326/615/81
f 260/614/81 326/615/81 261/616/81
f 261/616/81 326/615/81 262/617/81
f 262/617/81 326/615/81 263/618/81
f 263/618/81 326/615/81 264/619/81
f 264/619/81 326/615/81 325/620/81
f 264/619/81 325/620/81 265/621/81
f 265/621/81 325/620/81 266/622/81
f 266/622/81 325/620/81 267/623/81
f 267/623/81 325/620/81 268/624/81
f 268/624/81 325/620/81 269/625/81
f 269/625/81 325/620/81 270/626/81
f 270/626/81 325/620/81 271/627/81
f 271/627/81 325/620/81 272/628/81
f 272/628/81 325/620/81 273/629/81
f 273/629/81 325/620/81 274/630/81
f 274/630/81 325/620/81 275/631/81
f 275/631/81 325/620/81 276/632/81
f 276/632/81 325/620/81 277/633/81
f 277/633/81 325/620/81 278/634/81
f 278/634/81 325/620/81 279/635/81
f 279/635/81 325/620/81 280/636/81
f 280/636/81 325/620/81 281/637/81
f 281/637/81 325/620/81 282/638/81
f 282/638/81 325/620/81 283/639/81
f 283/639/81 325/620/81 284/640/81
f 284/640/81 325/620/81 285/641/81
f 285/641/81 325/620/81 286/642/81
f 286/642/81 325/620/81 287/643/81
f 287/643/81 325/620/81 288/644/81
f 288/644/81 325/620/81 289/645/81
f 289/645/81 325/620/81 290/646/81
f 290/646/81 325/620/81 291/647/81
f 291/647/81 325/620/81 292/648/81
f 292/648/81 325/620/81 293/649/81
f 293/649/81 325/620/81 294/650/81
f 294/650/81 325/620/81 295/651/81
f 295/651/81 325/620/81 296/652/81
f 296/652/81 325/620/81 297/653/81
f 297/653/81 325/620/81 298/654/81
f 298/654/81 325/620/81 299/655/81
f 299/655/81 325/620/81 300/656/81
f 300/656/81 325/620/81 301/657/81
f 301/657/81 325/620/81 302/658/81
f 302/658/81 325/620/81 303/659/81
f 303/659/81 325/620/81 304/660/81
f 304/660/81 325/620/81 305/661/81
f 305/661/81 325/620/81 306/662/81
f 306/662/81 325/620/81 307/663/81
f 307/663/81 325/620/81 308/664/81
f 308/664/81 325/620/81 309/665/81
f 309/665/81 325/620/81 310/666/81
f 310/666/81 325/620/81 311/667/81
f 311/667/81 325/620/81 312/668/81
f 312/668/81 325/620/81 313/669/81
f 313/669/81 325/620/81 314/670/81
f 314/670/81 325/620/81 315/671/81
f 315/671/81 325/620/81 316/672/81
f 316/672/81 325/620/81 317/673/81
f 317/673/81 325/620/81 318/674/81
f 318/674/81 325/620/81 319/675/81
f 319/675/81 325/620/81 320/676/81
f 320/676/81 325/620/81 321/677/81
f 321/677/81 325/620/81 322/678/81
f 322/678/81 325/620/81 323/679/81
f 323/679/81 325/620/81 324/680/81
f 155/511/81 154/681/81 96/68/81
f 96/68/81 154/681/81 153/506/81
f 526/682/272 434/683/272 340/684/272
f 340/684/272 434/683/272 433/685/272
f 340/684/272 433/685/272 341/686/272
f 341/686/272 433/685/272 432/687/272
f 341/686/272 432/687/272 342/688/272
f 342/688/272 432/687/272 431/689/272
f 342/688/272 431/689/272 343/690/272
f 343/690/272 431/689/272 430/691/272
f 343/690/272 430/691/272 344/692/272
f 344/692/272 430/691/272 429/693/272
f 344/692/272 429/693/272 345/694/272
f 345/694/272 429/693/272 428/695/272
f 345/694/272 428/695/272 346/696/272
f 346/696/272 428/695/272 427/697/272
f 346/696/272 427/697/272 347/698/272
f 347/698/272 427/697/272 426/699/272
f 347/698/272 426/699/272 348/700/272
f 348/700/272 426/699/272 425/701/272
f 348/700/272 425/701/272 349/702/272
f 349/702/272 425/701/272 424/703/272
f 349/702/272 424/703/272 350/704/272
f 350/704/272 424/703/272 423/705/272
f 350/704/272 423/705/272 351/706/272
f 351/706/272 423/705/272 422/707/272
f 351/706/272 422/707/272 352/708/272
f 352/708/272 422/707/272 421/709/272
f 352/708/272 421/709/272 353/710/272
f 353/710/272 421/709/272 420/711/272
f 353/710/272 420/711/272 354/712/272
f 354/712/272 420/711/272 419/713/272
f 354/712/272 419/713/272 355/714/272
f 355/714/272 419/713/272 418/715/272
f 355/714/272 418/715/272 356/716/272
f 356/716/272 418/715/272 417/717/272
f 356/716/272 417/717/272 357/718/272
f 357/718/272 417/717/272 416/719/272
f 357/718/272 416/719/272 358/720/272
f 358/720/272 416/719/272 415/721/272
f 358/720/272 415/721/272 359/722/272
f 359/722/272 415/721/272 414/723/272
f 359/722/272 414/723/272 413/724/272
f 434/683/272 526/682/272 435/725/272
f 435/725/272 526/682/272 525/726/272
f 435/725/272 525/726/272 436/727/272
f 436/727/272 525/726/272 524/728/272
f 436/727/272 524/728/272 437/729/272
f 437/729/272 524/728/272 523/730/272
f 437/729/272 523/730/272 438/731/272
f 438/731/272 523/730/272 522/732/272
f 438/731/272 522/732/272 439/733/272
f 439/733/272 522/732/272 521/734/272
f 439/733/272 521/734/272 440/735/272
f 440/735/272 521/734/272 520/736/272
f 440/735/272 520/736/272 441/737/272
f 441/737/272 520/736/272 519/738/272
f 441/737/272 519/738/272 442/739/272
f 442/739/272 519/738/272 518/740/272
f 442/739/272 518/740/272 443/741/272
f 443/741/272 518/740/272 517/742/272
f 443/741/272 517/742/272 444/743/272
f 444/743/272 517/742/272 516/744/272
f 444/743/272 516/744/272 445/745/272
f 445/745/272 516/744/272 515/746/272
f 445/745/272 515/746/272 446/747/272
f 446/747/272 515/746/272 514/748/272
f 446/747/272 514/748/272 447/749/272
f 447/749/272 514/748/272 513/750/272
f 447/749/272 513/750/272 448/751/272
f 448/751/272 513/750/272 512/752/272
f 448/751/272 512/752/272 449/753/272
f 449/753/272 512/752/272 511/754/272
f 449/753/272 511/754/272 450/755/272
f 450/755/272 511/754/272 510/756/272
f 450/755/272 510/756/272 451/757/272
f 451/757/272 510/756/272 509/758/272
f 451/757/272 509/758/272 452/759/272
f 452/759/272 509/758/272 508/760/272
f 452/759/272 508/760/272 453/761/272
f 453/761/272 508/760/272 507/762/272
f 453/761/272 507/762/272 454/763/272
f 454/763/272 507/762/272 506/764/272
f 454/763/272 506/764/272 455/765/272
f 455/765/272 506/764/272 505/766/272
f 455/765/272 505/766/272 456/767/272
f 456/767/272 505/766/272 504/768/272
f 456/767/272 504/768/272 457/769/272
f 457/769/272 504/768/272 503/770/272
f 457/769/272 503/770/272 458/771/272
f 458/771/272 503/770/272 502/772/272
f 458/771/272 502/772/272 459/773/272
f 459/773/272 502/772/272 501/774/272
f 459/773/272 501/774/272 460/775/272
f 460/775/272 501/774/272 500/776/272
f 460/775/272 500/776/272 461/777/272
f 461/777/272 500/776/272 499/778/272
f 461/777/272 499/778/272 462/779/272
f 462/779/272 499/778/272 498/780/272
f 462/779/272 498/780/272 463/781/272
f 463/781/272 498/780/272 497/782/272
f 463/781/272 497/782/272 464/783/272
f 464/783/272 497/782/272 496/784/272
f 464/783/272 496/784/272 465/785/272
f 465/785/272 496/784/272 495/786/272
f 465/785/272 495/786/272 466/787/272
f 466/787/272 495/786/272 494/788/272
f 466/787/272 494/788/272 467/789/272
f 467/789/272 494/788/272 493/790/272
f 467/789/272 493/790/272 468/791/272
f 468/791/272 493/790/272 492/792/272
f 468/791/272 492/792/272 469/793/272
f 469/793/272 492/792/272 491/794/272
f 469/793/272 491/794/272 470/795/272
f 470/795/272 491/794/272 490/796/272
f 470/795/272 490/796/272 471/797/272
f 471/797/272 490/796/272 489/798/272
f 471/797/272 489/798/272 472/799/272
f 472/799/272 489/798/272 488/800/272
f 472/799/272 488/800/272 473/801/272
f 473/801/272 488/800/272 487/802/272
f 473/801/272 487/802/272 474/803/272
f 474/803/272 487/802/272 486/804/272
f 474/803/272 486/804/272 475/805/272
f 475/805/272 486/804/272 485/806/272
f 475/805/272 485/806/272 476/807/272
f 476/807/272 485/806/272 484/808/272
f 476/807/272 484/808/272 477/809/272
f 477/809/272 484/808/272 483/810/272
f 477/809/272 483/810/272 478/811/272
f 478/811/272 483/810/272 482/812/272
f 478/811/272 482/812/272 479/813/272
f 479/813/272 482/812/272 481/814/272
f 479/813/272 481/814/272 480/815/272
f 413/724/272 412/816/272 359/722/272
f 359/722/272 412/816/272 411/817/272
f 359/722/272 411/817/272 410/818/272
f 410/818/272 409/819/272 359/722/272
f 359/722/272 409/819/272 408/820/272
f 359/722/272 408/820/272 407/821/272
f 407/821/272 406/822/272 359/722/272
f 359/722/272 406/822/272 405/823/272
f 359/722/272 405/823/272 404/824/272
f 404/824/272 403/825/272 359/722/272
f 359/722/272 403/825/272 402/826/272
f 359/722/272 402/826/272 401/827/272
f 401/827/272 400/828/272 359/722/272
f 359/722/272 400/828/272 399/829/272
f 359/722/272 399/829/272 398/830/272
f 398/830/272 397/831/272 359/722/272
f 359/722/272 397/831/272 396/832/272
f 359/722/272 396/832/272 395/833/272
f 395/833/272 394/834/272 359/722/272
f 359/722/272 394/834/272 393/835/272
f 359/722/272 393/835/272 392/836/272
f 392/836/272 391/837/272 359/722/272
f 359/722/272 391/837/272 390/838/272
f 359/722/272 390/838/272 389/839/272
f 389/839/272 388/840/272 359/722/272
f 359/722/272 388/840/272 387/841/272
f 359/722/272 387/841/272 386/842/272
f 386/842/272 385/843/272 359/722/272
f 359/722/272 385/843/272 384/844/272
f 359/722/272 384/844/272 383/845/272
f 383/845/272 382/846/272 359/722/272
f 359/722/272 382/846/272 381/847/272
f 359/722/272 381/847/272 380/848/272
f 380/848/272 379/849/272 359/722/272
f 359/722/272 379/849/272 378/850/272
f 359/722/272 378/850/272 377/851/272
f 377/851/272 376/852/272 359/722/272
f 359/722/272 376/852/272 375/853/272
f 359/722/272 375/853/272 374/854/272
f 374/854/272 373/855/272 359/722/272
f 359/722/272 373/855/272 372/856/272
f 359/722/272 372/856/272 371/857/272
f 371/857/272 370/858/272 359/722/272
f 359/722/272 370/858/272 369/859/272
f 359/722/272 369/859/272 368/860/272
f 368/860/272 367/861/272 359/722/272
f 359/722/272 367/861/272 366/862/272
f 359/722/272 366/862/272 365/863/272
f 365/863/272 364/864/272 359/722/272
f 359/722/272 364/864/272 363/865/272
f 359/722/272 363/865/272 362/866/272
f 362/866/272 361/867/272 359/722/272
f 359/722/272 361/867/272 360/868/272
